solid Exported from Blender-3.3.1
facet normal -1.000000 0.000000 0.000000
outer loop
vertex -2.399975 105.137497 -0.000001
vertex -2.399994 25.650000 -0.000001
vertex -2.399975 105.137497 4.799999
endloop
endfacet
facet normal -0.000000 -1.000000 0.000000
outer loop
vertex -2.399975 105.137497 -0.000001
vertex -2.399975 105.137497 4.799999
vertex -63.862473 105.137512 -0.000001
endloop
endfacet
facet normal 0.000000 0.000000 -1.000000
outer loop
vertex -63.862473 105.137512 -0.000001
vertex -66.262474 107.537514 -0.000001
vertex -2.399975 105.137497 -0.000001
endloop
endfacet
facet normal 0.000000 0.000000 -1.000000
outer loop
vertex -2.399975 105.137497 -0.000001
vertex -66.262474 107.537514 -0.000001
vertex 66.262520 107.537483 -0.000001
endloop
endfacet
facet normal 0.000000 0.000000 -1.000000
outer loop
vertex -2.399975 105.137497 -0.000001
vertex 66.262520 107.537483 -0.000001
vertex 2.400025 105.137497 -0.000001
endloop
endfacet
facet normal 0.000000 0.000000 -1.000000
outer loop
vertex 66.262520 107.537483 -0.000001
vertex 63.862526 105.137482 -0.000001
vertex 2.400025 105.137497 -0.000001
endloop
endfacet
facet normal -0.000000 -1.000000 0.000000
outer loop
vertex 63.862526 105.137482 -0.000001
vertex 2.400025 105.137497 4.799999
vertex 2.400025 105.137497 -0.000001
endloop
endfacet
facet normal 1.000000 -0.000000 0.000000
outer loop
vertex 2.400025 105.137497 4.799999
vertex 2.400006 25.650000 4.799999
vertex 2.400025 105.137497 -0.000001
endloop
endfacet
facet normal 1.000000 -0.000000 0.000000
outer loop
vertex 2.400025 105.137497 -0.000001
vertex 2.400006 25.650000 4.799999
vertex 2.400006 25.650000 -0.000001
endloop
endfacet
facet normal 0.000000 0.000000 -1.000000
outer loop
vertex 2.400006 25.650000 -0.000001
vertex -2.399994 25.650000 -0.000001
vertex 2.400025 105.137497 -0.000001
endloop
endfacet
facet normal 0.000000 0.000000 -1.000000
outer loop
vertex 2.400006 25.650000 -0.000001
vertex -2.400006 -25.650000 -0.000001
vertex -2.399994 25.650000 -0.000001
endloop
endfacet
facet normal 0.000000 0.000000 -1.000000
outer loop
vertex -2.399994 25.650000 -0.000001
vertex -2.400006 -25.650000 -0.000001
vertex -26.400000 2.400006 -0.000001
endloop
endfacet
facet normal 0.000000 0.000000 -1.000000
outer loop
vertex -2.399994 25.650000 -0.000001
vertex -26.400000 2.400006 -0.000001
vertex -26.399994 25.650005 -0.000001
endloop
endfacet
facet normal 0.000000 1.000000 0.000000
outer loop
vertex -2.399994 25.650000 -0.000001
vertex -26.399994 25.650005 -0.000001
vertex -2.399994 25.650000 4.799999
endloop
endfacet
facet normal 0.000000 1.000000 0.000000
outer loop
vertex -2.399994 25.650000 4.799999
vertex -26.399994 25.650005 -0.000001
vertex -26.399994 25.650005 20.500000
endloop
endfacet
facet normal 0.000000 1.000000 0.000000
outer loop
vertex -2.399994 25.650000 4.799999
vertex -26.399994 25.650005 20.500000
vertex 26.400005 25.649994 20.500000
endloop
endfacet
facet normal 0.000000 1.000000 0.000002
outer loop
vertex -2.399994 25.650000 4.799999
vertex 26.400005 25.649994 20.500000
vertex 2.400006 25.650000 4.799999
endloop
endfacet
facet normal 0.000000 0.000000 1.000000
outer loop
vertex 2.400006 25.650000 4.799999
vertex -2.399975 105.137497 4.799999
vertex -2.399994 25.650000 4.799999
endloop
endfacet
facet normal 0.000000 1.000000 0.000000
outer loop
vertex 2.400006 25.650000 4.799999
vertex 26.400005 25.649994 20.500000
vertex 26.400005 25.649994 -0.000001
endloop
endfacet
facet normal 1.000000 -0.000000 0.000000
outer loop
vertex 26.400000 2.399994 4.799999
vertex 26.400005 25.649994 -0.000001
vertex 26.400005 25.649994 20.500000
endloop
endfacet
facet normal 1.000000 -0.000000 -0.000000
outer loop
vertex 26.400000 2.399994 4.799999
vertex 26.400005 25.649994 20.500000
vertex 26.399994 -25.650005 20.500000
endloop
endfacet
facet normal 1.000000 0.000000 0.000000
outer loop
vertex 26.400000 2.399994 4.799999
vertex 26.399994 -25.650005 20.500000
vertex 26.400000 -2.400006 4.799999
endloop
endfacet
facet normal 0.000000 0.000000 1.000000
outer loop
vertex 26.400000 -2.400006 4.799999
vertex 63.862499 -2.400015 4.799999
vertex 26.400000 2.399994 4.799999
endloop
endfacet
facet normal 0.000000 0.000000 1.000000
outer loop
vertex 26.400000 2.399994 4.799999
vertex 63.862499 -2.400015 4.799999
vertex 63.862499 2.399985 4.799999
endloop
endfacet
facet normal 0.000000 1.000000 0.000000
outer loop
vertex 26.400000 2.399994 4.799999
vertex 63.862499 2.399985 4.799999
vertex 26.400000 2.399994 -0.000001
endloop
endfacet
facet normal 0.000000 1.000000 0.000000
outer loop
vertex 26.400000 2.399994 -0.000001
vertex 63.862499 2.399985 4.799999
vertex 63.862499 2.399985 -0.000001
endloop
endfacet
facet normal 0.000000 0.000000 -1.000000
outer loop
vertex 63.862499 2.399985 -0.000001
vertex 26.400000 -2.400006 -0.000001
vertex 26.400000 2.399994 -0.000001
endloop
endfacet
facet normal 0.000000 0.000000 -1.000000
outer loop
vertex 26.400000 2.399994 -0.000001
vertex 26.400000 -2.400006 -0.000001
vertex 2.399994 -25.650000 -0.000001
endloop
endfacet
facet normal 0.000000 0.000000 -1.000000
outer loop
vertex 26.400000 2.399994 -0.000001
vertex 2.399994 -25.650000 -0.000001
vertex 2.400006 25.650000 -0.000001
endloop
endfacet
facet normal 0.000000 0.000000 -1.000000
outer loop
vertex 2.400006 25.650000 -0.000001
vertex 26.400005 25.649994 -0.000001
vertex 26.400000 2.399994 -0.000001
endloop
endfacet
facet normal -0.000000 0.000000 -1.000000
outer loop
vertex 26.400000 -2.400006 -0.000001
vertex 26.399994 -25.650005 -0.000001
vertex 2.399994 -25.650000 -0.000001
endloop
endfacet
facet normal -0.000000 -1.000000 0.000000
outer loop
vertex 26.399994 -25.650005 -0.000001
vertex 2.399994 -25.650000 4.799999
vertex 2.399994 -25.650000 -0.000001
endloop
endfacet
facet normal 1.000000 -0.000000 0.000000
outer loop
vertex 2.399975 -105.137497 4.799999
vertex 2.399994 -25.650000 -0.000001
vertex 2.399994 -25.650000 4.799999
endloop
endfacet
facet normal 0.000000 0.000000 1.000000
outer loop
vertex -2.400006 -25.650000 4.799999
vertex 2.399975 -105.137497 4.799999
vertex 2.399994 -25.650000 4.799999
endloop
endfacet
facet normal 0.000000 -1.000000 0.000002
outer loop
vertex -26.400005 -25.649994 20.500000
vertex -2.400006 -25.650000 4.799999
vertex 2.399994 -25.650000 4.799999
endloop
endfacet
facet normal -0.000000 -1.000000 0.000000
outer loop
vertex -26.400005 -25.649994 20.500000
vertex 2.399994 -25.650000 4.799999
vertex 26.399994 -25.650005 20.500000
endloop
endfacet
facet normal 0.000000 0.000000 1.000000
outer loop
vertex -24.000006 -23.249994 20.500000
vertex -26.400005 -25.649994 20.500000
vertex 26.399994 -25.650005 20.500000
endloop
endfacet
facet normal -0.000000 0.000000 1.000000
outer loop
vertex -24.000006 -23.249994 20.500000
vertex 26.399994 -25.650005 20.500000
vertex 23.999994 -23.250006 20.500000
endloop
endfacet
facet normal 0.000000 1.000000 0.000000
outer loop
vertex 23.999994 -23.250006 20.500000
vertex -24.000006 -23.249994 14.249999
vertex -24.000006 -23.249994 20.500000
endloop
endfacet
facet normal 1.000000 -0.000000 0.000000
outer loop
vertex -24.000006 -23.249994 14.249999
vertex -23.999994 23.250006 14.249999
vertex -24.000006 -23.249994 20.500000
endloop
endfacet
facet normal 1.000000 -0.000000 0.000000
outer loop
vertex -24.000006 -23.249994 20.500000
vertex -23.999994 23.250006 14.249999
vertex -23.999994 23.250006 20.500000
endloop
endfacet
facet normal -0.000000 -1.000000 0.000000
outer loop
vertex -23.999994 23.250006 14.249999
vertex 24.000006 23.249994 14.249999
vertex -23.999994 23.250006 20.500000
endloop
endfacet
facet normal -0.000000 -1.000000 0.000000
outer loop
vertex -23.999994 23.250006 20.500000
vertex 24.000006 23.249994 14.249999
vertex 24.000006 23.249994 20.500000
endloop
endfacet
facet normal 0.000000 0.000000 1.000000
outer loop
vertex 24.000006 23.249994 20.500000
vertex -26.399994 25.650005 20.500000
vertex -23.999994 23.250006 20.500000
endloop
endfacet
facet normal 0.000000 0.000000 1.000000
outer loop
vertex -23.999994 23.250006 20.500000
vertex -26.399994 25.650005 20.500000
vertex -26.400005 -25.649994 20.500000
endloop
endfacet
facet normal -1.000000 0.000000 -0.000000
outer loop
vertex -26.399994 25.650005 20.500000
vertex -26.400000 -2.399994 4.799999
vertex -26.400005 -25.649994 20.500000
endloop
endfacet
facet normal -1.000000 0.000000 0.000000
outer loop
vertex -26.400005 -25.649994 20.500000
vertex -26.400000 -2.399994 4.799999
vertex -26.400005 -25.649994 -0.000001
endloop
endfacet
facet normal -1.000000 0.000000 0.000000
outer loop
vertex -26.400005 -25.649994 -0.000001
vertex -26.400000 -2.399994 4.799999
vertex -26.400000 -2.399994 -0.000001
endloop
endfacet
facet normal 0.000000 0.000000 -1.000000
outer loop
vertex -26.400005 -25.649994 -0.000001
vertex -26.400000 -2.399994 -0.000001
vertex -2.400006 -25.650000 -0.000001
endloop
endfacet
facet normal -0.000000 -1.000000 0.000000
outer loop
vertex -2.400006 -25.650000 -0.000001
vertex -2.400006 -25.650000 4.799999
vertex -26.400005 -25.649994 -0.000001
endloop
endfacet
facet normal -1.000000 0.000000 0.000000
outer loop
vertex -2.400025 -105.137497 -0.000001
vertex -2.400006 -25.650000 4.799999
vertex -2.400006 -25.650000 -0.000001
endloop
endfacet
facet normal 0.000000 0.000000 -1.000000
outer loop
vertex -2.400006 -25.650000 -0.000001
vertex 2.399994 -25.650000 -0.000001
vertex -2.400025 -105.137497 -0.000001
endloop
endfacet
facet normal 0.000000 0.000000 -1.000000
outer loop
vertex -2.400025 -105.137497 -0.000001
vertex 2.399994 -25.650000 -0.000001
vertex 2.399975 -105.137497 -0.000001
endloop
endfacet
facet normal 0.000000 0.000000 -1.000000
outer loop
vertex 2.399975 -105.137497 -0.000001
vertex -66.262520 -107.537483 -0.000001
vertex -2.400025 -105.137497 -0.000001
endloop
endfacet
facet normal 0.000000 0.000000 -1.000000
outer loop
vertex -2.400025 -105.137497 -0.000001
vertex -66.262520 -107.537483 -0.000001
vertex -63.862526 -105.137482 -0.000001
endloop
endfacet
facet normal 0.000000 1.000000 0.000000
outer loop
vertex -2.400025 -105.137497 -0.000001
vertex -63.862526 -105.137482 -0.000001
vertex -2.400025 -105.137497 4.799999
endloop
endfacet
facet normal 0.000000 1.000000 0.000000
outer loop
vertex -2.400025 -105.137497 4.799999
vertex -63.862526 -105.137482 -0.000001
vertex -63.862526 -105.137482 20.000000
endloop
endfacet
facet normal 0.000000 1.000000 0.000000
outer loop
vertex -2.400025 -105.137497 4.799999
vertex -63.862526 -105.137482 20.000000
vertex 63.862473 -105.137512 20.000000
endloop
endfacet
facet normal 0.000000 1.000000 -0.000013
outer loop
vertex -2.400025 -105.137497 4.799999
vertex 63.862473 -105.137512 20.000000
vertex 2.399975 -105.137497 4.799999
endloop
endfacet
facet normal 0.000000 1.000000 0.000000
outer loop
vertex 2.399975 -105.137497 4.799999
vertex 63.862473 -105.137512 20.000000
vertex 63.862473 -105.137512 -0.000001
endloop
endfacet
facet normal 0.000000 1.000000 0.000000
outer loop
vertex 2.399975 -105.137497 4.799999
vertex 63.862473 -105.137512 -0.000001
vertex 2.399975 -105.137497 -0.000001
endloop
endfacet
facet normal 0.000000 0.000000 -1.000000
outer loop
vertex 63.862473 -105.137512 -0.000001
vertex 66.262474 -107.537514 -0.000001
vertex 2.399975 -105.137497 -0.000001
endloop
endfacet
facet normal 0.000000 0.000000 -1.000000
outer loop
vertex 63.862473 -105.137512 -0.000001
vertex 63.862499 -2.400015 -0.000001
vertex 66.262474 -107.537514 -0.000001
endloop
endfacet
facet normal -0.000000 0.000000 -1.000000
outer loop
vertex 66.262474 -107.537514 -0.000001
vertex 63.862499 -2.400015 -0.000001
vertex 63.862499 2.399985 -0.000001
endloop
endfacet
facet normal 0.000000 0.000000 -1.000000
outer loop
vertex 66.262474 -107.537514 -0.000001
vertex 63.862499 2.399985 -0.000001
vertex 66.262520 107.537483 -0.000001
endloop
endfacet
facet normal 1.000000 -0.000000 0.000000
outer loop
vertex 66.262474 -107.537514 -0.000001
vertex 66.262520 107.537483 -0.000001
vertex 66.262474 -107.537514 20.000000
endloop
endfacet
facet normal -0.000000 -1.000000 0.000000
outer loop
vertex -66.262520 -107.537483 20.000000
vertex 66.262474 -107.537514 -0.000001
vertex 66.262474 -107.537514 20.000000
endloop
endfacet
facet normal 0.000000 0.000000 1.000000
outer loop
vertex -63.862526 -105.137482 20.000000
vertex -66.262520 -107.537483 20.000000
vertex 66.262474 -107.537514 20.000000
endloop
endfacet
facet normal -0.000000 0.000000 1.000000
outer loop
vertex -63.862473 105.137512 20.000000
vertex -66.262520 -107.537483 20.000000
vertex -63.862526 -105.137482 20.000000
endloop
endfacet
facet normal 1.000000 -0.000000 -0.000000
outer loop
vertex -63.862499 2.400015 4.799999
vertex -63.862473 105.137512 20.000000
vertex -63.862526 -105.137482 20.000000
endloop
endfacet
facet normal 1.000000 0.000000 0.000002
outer loop
vertex -63.862499 2.400015 4.799999
vertex -63.862526 -105.137482 20.000000
vertex -63.862499 -2.399985 4.799999
endloop
endfacet
facet normal 0.000000 0.000000 1.000000
outer loop
vertex -26.400000 -2.399994 4.799999
vertex -63.862499 2.400015 4.799999
vertex -63.862499 -2.399985 4.799999
endloop
endfacet
facet normal 0.000000 0.000000 1.000000
outer loop
vertex -26.400000 2.400006 4.799999
vertex -63.862499 2.400015 4.799999
vertex -26.400000 -2.399994 4.799999
endloop
endfacet
facet normal 0.000000 1.000000 0.000000
outer loop
vertex -26.400000 2.400006 4.799999
vertex -63.862499 2.400015 -0.000001
vertex -63.862499 2.400015 4.799999
endloop
endfacet
facet normal 1.000000 -0.000000 0.000000
outer loop
vertex -63.862499 2.400015 -0.000001
vertex -63.862473 105.137512 -0.000001
vertex -63.862499 2.400015 4.799999
endloop
endfacet
facet normal 0.000000 1.000000 0.000000
outer loop
vertex -26.400000 2.400006 -0.000001
vertex -63.862499 2.400015 -0.000001
vertex -26.400000 2.400006 4.799999
endloop
endfacet
facet normal 0.000000 0.000000 -1.000000
outer loop
vertex -63.862499 -2.399985 -0.000001
vertex -63.862499 2.400015 -0.000001
vertex -26.400000 2.400006 -0.000001
endloop
endfacet
facet normal 0.000000 0.000000 -1.000000
outer loop
vertex -26.400000 -2.399994 -0.000001
vertex -63.862499 -2.399985 -0.000001
vertex -26.400000 2.400006 -0.000001
endloop
endfacet
facet normal -0.000000 -1.000000 0.000000
outer loop
vertex -26.400000 -2.399994 -0.000001
vertex -63.862499 -2.399985 4.799999
vertex -63.862499 -2.399985 -0.000001
endloop
endfacet
facet normal 1.000000 -0.000000 0.000000
outer loop
vertex -63.862499 -2.399985 4.799999
vertex -63.862526 -105.137482 -0.000001
vertex -63.862499 -2.399985 -0.000001
endloop
endfacet
facet normal 0.000000 0.000000 -1.000000
outer loop
vertex -63.862499 -2.399985 -0.000001
vertex -66.262520 -107.537483 -0.000001
vertex -63.862499 2.400015 -0.000001
endloop
endfacet
facet normal 0.000000 0.000000 -1.000000
outer loop
vertex -66.262474 107.537514 -0.000001
vertex -63.862499 2.400015 -0.000001
vertex -66.262520 -107.537483 -0.000001
endloop
endfacet
facet normal -1.000000 0.000000 0.000000
outer loop
vertex -66.262474 107.537514 -0.000001
vertex -66.262520 -107.537483 -0.000001
vertex -66.262474 107.537514 20.000000
endloop
endfacet
facet normal 0.000000 1.000000 0.000000
outer loop
vertex 66.262520 107.537483 20.000000
vertex -66.262474 107.537514 -0.000001
vertex -66.262474 107.537514 20.000000
endloop
endfacet
facet normal 0.000000 0.000000 1.000000
outer loop
vertex 63.862526 105.137482 20.000000
vertex 66.262520 107.537483 20.000000
vertex -66.262474 107.537514 20.000000
endloop
endfacet
facet normal 0.000000 0.000000 1.000000
outer loop
vertex -66.262474 107.537514 20.000000
vertex -63.862473 105.137512 20.000000
vertex 63.862526 105.137482 20.000000
endloop
endfacet
facet normal -0.000000 -1.000000 0.000000
outer loop
vertex -63.862473 105.137512 20.000000
vertex 2.400025 105.137497 4.799999
vertex 63.862526 105.137482 20.000000
endloop
endfacet
facet normal 0.000000 -1.000000 -0.000009
outer loop
vertex -63.862473 105.137512 20.000000
vertex -2.399975 105.137497 4.799999
vertex 2.400025 105.137497 4.799999
endloop
endfacet
facet normal 0.000000 0.000000 1.000000
outer loop
vertex 63.862526 105.137482 20.000000
vertex 66.262474 -107.537514 20.000000
vertex 66.262520 107.537483 20.000000
endloop
endfacet
facet normal 0.000000 0.000000 1.000000
outer loop
vertex 63.862473 -105.137512 20.000000
vertex 66.262474 -107.537514 20.000000
vertex 63.862526 105.137482 20.000000
endloop
endfacet
facet normal -1.000000 0.000000 -0.000000
outer loop
vertex 63.862526 105.137482 20.000000
vertex 63.862499 -2.400015 4.799999
vertex 63.862473 -105.137512 20.000000
endloop
endfacet
facet normal -1.000000 0.000000 0.000000
outer loop
vertex -66.262474 107.537514 20.000000
vertex -66.262520 -107.537483 -0.000001
vertex -66.262520 -107.537483 20.000000
endloop
endfacet
facet normal 1.000000 -0.000000 0.000000
outer loop
vertex -63.862499 2.400015 4.799999
vertex -63.862473 105.137512 -0.000001
vertex -63.862473 105.137512 20.000000
endloop
endfacet
facet normal -0.000000 0.000000 1.000000
outer loop
vertex -66.262520 -107.537483 20.000000
vertex -63.862473 105.137512 20.000000
vertex -66.262474 107.537514 20.000000
endloop
endfacet
facet normal -0.000000 -1.000000 0.000000
outer loop
vertex -66.262520 -107.537483 -0.000001
vertex 66.262474 -107.537514 -0.000001
vertex -66.262520 -107.537483 20.000000
endloop
endfacet
facet normal 1.000000 -0.000000 0.000000
outer loop
vertex 66.262474 -107.537514 20.000000
vertex 66.262520 107.537483 -0.000001
vertex 66.262520 107.537483 20.000000
endloop
endfacet
facet normal -1.000000 0.000000 0.000000
outer loop
vertex 63.862473 -105.137512 -0.000001
vertex 63.862499 -2.400015 4.799999
vertex 63.862499 -2.400015 -0.000001
endloop
endfacet
facet normal -1.000000 0.000000 0.000000
outer loop
vertex 63.862473 -105.137512 20.000000
vertex 63.862499 -2.400015 4.799999
vertex 63.862473 -105.137512 -0.000001
endloop
endfacet
facet normal 0.000000 0.000000 1.000000
outer loop
vertex -63.862526 -105.137482 20.000000
vertex 66.262474 -107.537514 20.000000
vertex 63.862473 -105.137512 20.000000
endloop
endfacet
facet normal 1.000000 -0.000000 0.000000
outer loop
vertex -63.862499 -2.399985 4.799999
vertex -63.862526 -105.137482 20.000000
vertex -63.862526 -105.137482 -0.000001
endloop
endfacet
facet normal 0.000000 0.000000 -1.000000
outer loop
vertex -63.862526 -105.137482 -0.000001
vertex -66.262520 -107.537483 -0.000001
vertex -63.862499 -2.399985 -0.000001
endloop
endfacet
facet normal 0.000000 0.000000 -1.000000
outer loop
vertex 2.399975 -105.137497 -0.000001
vertex 66.262474 -107.537514 -0.000001
vertex -66.262520 -107.537483 -0.000001
endloop
endfacet
facet normal -1.000000 0.000000 0.000000
outer loop
vertex -2.400025 -105.137497 4.799999
vertex -2.400006 -25.650000 4.799999
vertex -2.400025 -105.137497 -0.000001
endloop
endfacet
facet normal -0.000000 -1.000000 0.000000
outer loop
vertex -26.400000 -2.399994 4.799999
vertex -63.862499 -2.399985 4.799999
vertex -26.400000 -2.399994 -0.000001
endloop
endfacet
facet normal -1.000000 0.000000 0.000000
outer loop
vertex -26.399994 25.650005 20.500000
vertex -26.400000 2.400006 4.799999
vertex -26.400000 -2.399994 4.799999
endloop
endfacet
facet normal -1.000000 0.000000 0.000000
outer loop
vertex 24.000006 23.249994 14.249999
vertex 23.999994 -23.250006 14.249999
vertex 24.000006 23.249994 20.500000
endloop
endfacet
facet normal -1.000000 0.000000 0.000000
outer loop
vertex 24.000006 23.249994 20.500000
vertex 23.999994 -23.250006 14.249999
vertex 23.999994 -23.250006 20.500000
endloop
endfacet
facet normal 0.000000 0.000000 1.000000
outer loop
vertex -23.999994 23.250006 14.249999
vertex 23.999994 -23.250006 14.249999
vertex 24.000006 23.249994 14.249999
endloop
endfacet
facet normal 0.000000 0.000000 1.000000
outer loop
vertex -24.000006 -23.249994 14.249999
vertex 23.999994 -23.250006 14.249999
vertex -23.999994 23.250006 14.249999
endloop
endfacet
facet normal 0.000000 1.000000 0.000000
outer loop
vertex 23.999994 -23.250006 14.249999
vertex -24.000006 -23.249994 14.249999
vertex 23.999994 -23.250006 20.500000
endloop
endfacet
facet normal 0.000000 0.000000 1.000000
outer loop
vertex 23.999994 -23.250006 20.500000
vertex 26.399994 -25.650005 20.500000
vertex 24.000006 23.249994 20.500000
endloop
endfacet
facet normal 0.000000 0.000000 1.000000
outer loop
vertex -23.999994 23.250006 20.500000
vertex -26.400005 -25.649994 20.500000
vertex -24.000006 -23.249994 20.500000
endloop
endfacet
facet normal -0.000000 -1.000000 0.000000
outer loop
vertex -26.400005 -25.649994 -0.000001
vertex -2.400006 -25.650000 4.799999
vertex -26.400005 -25.649994 20.500000
endloop
endfacet
facet normal 0.000000 0.000000 1.000000
outer loop
vertex -2.400025 -105.137497 4.799999
vertex 2.399975 -105.137497 4.799999
vertex -2.400006 -25.650000 4.799999
endloop
endfacet
facet normal 1.000000 -0.000000 0.000000
outer loop
vertex 2.399975 -105.137497 -0.000001
vertex 2.399994 -25.650000 -0.000001
vertex 2.399975 -105.137497 4.799999
endloop
endfacet
facet normal -0.000000 -1.000000 0.000000
outer loop
vertex 26.399994 -25.650005 20.500000
vertex 2.399994 -25.650000 4.799999
vertex 26.399994 -25.650005 -0.000001
endloop
endfacet
facet normal 1.000000 -0.000000 0.000000
outer loop
vertex 26.400000 -2.400006 4.799999
vertex 26.399994 -25.650005 -0.000001
vertex 26.400000 -2.400006 -0.000001
endloop
endfacet
facet normal -0.000000 -1.000000 0.000000
outer loop
vertex 26.400000 -2.400006 -0.000001
vertex 63.862499 -2.400015 -0.000001
vertex 26.400000 -2.400006 4.799999
endloop
endfacet
facet normal 0.000000 0.000000 -1.000000
outer loop
vertex 63.862499 -2.400015 -0.000001
vertex 26.400000 -2.400006 -0.000001
vertex 63.862499 2.399985 -0.000001
endloop
endfacet
facet normal -1.000000 0.000000 0.000000
outer loop
vertex 63.862499 2.399985 -0.000001
vertex 63.862499 2.399985 4.799999
vertex 63.862526 105.137482 -0.000001
endloop
endfacet
facet normal -1.000000 0.000000 0.000000
outer loop
vertex 63.862526 105.137482 -0.000001
vertex 63.862499 2.399985 4.799999
vertex 63.862526 105.137482 20.000000
endloop
endfacet
facet normal -1.000000 0.000000 0.000002
outer loop
vertex 63.862526 105.137482 20.000000
vertex 63.862499 2.399985 4.799999
vertex 63.862499 -2.400015 4.799999
endloop
endfacet
facet normal -0.000000 -1.000000 0.000000
outer loop
vertex 26.400000 -2.400006 4.799999
vertex 63.862499 -2.400015 -0.000001
vertex 63.862499 -2.400015 4.799999
endloop
endfacet
facet normal 1.000000 -0.000000 0.000000
outer loop
vertex 26.400000 -2.400006 4.799999
vertex 26.399994 -25.650005 20.500000
vertex 26.399994 -25.650005 -0.000001
endloop
endfacet
facet normal 0.000000 0.000000 1.000000
outer loop
vertex 24.000006 23.249994 20.500000
vertex 26.399994 -25.650005 20.500000
vertex 26.400005 25.649994 20.500000
endloop
endfacet
facet normal 1.000000 -0.000000 0.000000
outer loop
vertex 26.400000 2.399994 -0.000001
vertex 26.400005 25.649994 -0.000001
vertex 26.400000 2.399994 4.799999
endloop
endfacet
facet normal -0.000000 0.000000 1.000000
outer loop
vertex 24.000006 23.249994 20.500000
vertex 26.400005 25.649994 20.500000
vertex -26.399994 25.650005 20.500000
endloop
endfacet
facet normal -1.000000 0.000000 0.000000
outer loop
vertex -26.399994 25.650005 -0.000001
vertex -26.400000 2.400006 4.799999
vertex -26.399994 25.650005 20.500000
endloop
endfacet
facet normal -1.000000 0.000000 0.000000
outer loop
vertex -26.400000 2.400006 -0.000001
vertex -26.400000 2.400006 4.799999
vertex -26.399994 25.650005 -0.000001
endloop
endfacet
facet normal -0.000000 0.000000 -1.000000
outer loop
vertex -2.400006 -25.650000 -0.000001
vertex -26.400000 -2.399994 -0.000001
vertex -26.400000 2.400006 -0.000001
endloop
endfacet
facet normal 0.000000 0.000000 -1.000000
outer loop
vertex 2.400006 25.650000 -0.000001
vertex 2.399994 -25.650000 -0.000001
vertex -2.400006 -25.650000 -0.000001
endloop
endfacet
facet normal 0.000000 1.000000 0.000000
outer loop
vertex 2.400006 25.650000 4.799999
vertex 26.400005 25.649994 -0.000001
vertex 2.400006 25.650000 -0.000001
endloop
endfacet
facet normal 0.000000 0.000000 1.000000
outer loop
vertex 2.400025 105.137497 4.799999
vertex -2.399975 105.137497 4.799999
vertex 2.400006 25.650000 4.799999
endloop
endfacet
facet normal -0.000000 -1.000000 0.000000
outer loop
vertex 63.862526 105.137482 20.000000
vertex 2.400025 105.137497 4.799999
vertex 63.862526 105.137482 -0.000001
endloop
endfacet
facet normal 0.000000 0.000000 -1.000000
outer loop
vertex 66.262520 107.537483 -0.000001
vertex 63.862499 2.399985 -0.000001
vertex 63.862526 105.137482 -0.000001
endloop
endfacet
facet normal 0.000000 1.000000 0.000000
outer loop
vertex 66.262520 107.537483 -0.000001
vertex -66.262474 107.537514 -0.000001
vertex 66.262520 107.537483 20.000000
endloop
endfacet
facet normal 0.000000 0.000000 -1.000000
outer loop
vertex -63.862473 105.137512 -0.000001
vertex -63.862499 2.400015 -0.000001
vertex -66.262474 107.537514 -0.000001
endloop
endfacet
facet normal -0.000000 -1.000000 0.000000
outer loop
vertex -63.862473 105.137512 -0.000001
vertex -2.399975 105.137497 4.799999
vertex -63.862473 105.137512 20.000000
endloop
endfacet
facet normal -1.000000 0.000000 0.000000
outer loop
vertex -2.399975 105.137497 4.799999
vertex -2.399994 25.650000 -0.000001
vertex -2.399994 25.650000 4.799999
endloop
endfacet
facet normal 0.000000 0.000000 -1.000000
outer loop
vertex 2.400025 105.137497 -0.000001
vertex -2.399994 25.650000 -0.000001
vertex -2.399975 105.137497 -0.000001
endloop
endfacet
endsolid Exported from Blender-3.3.1
