solid ASCII
  facet normal 1.000000e+00 1.061512e-16 0.000000e+00
    outer loop
      vertex   2.400000e+00 1.051375e+02 1.425000e+01
      vertex   2.400000e+00 2.565000e+01 1.425000e+01
      vertex   2.400000e+00 1.051375e+02 9.450000e+00
    endloop
  endfacet
  facet normal 1.000000e+00 1.173250e-16 1.850372e-16
    outer loop
      vertex   2.400000e+00 1.051375e+02 9.450000e+00
      vertex   2.400000e+00 2.565000e+01 1.425000e+01
      vertex   2.400000e+00 2.565000e+01 9.450000e+00
    endloop
  endfacet
  facet normal 1.000000e+00 1.173250e-16 -0.000000e+00
    outer loop
      vertex   2.400000e+00 -1.051375e+02 9.450000e+00
      vertex   2.400000e+00 -2.565000e+01 9.450000e+00
      vertex   2.400000e+00 -1.051375e+02 1.425000e+01
    endloop
  endfacet
  facet normal 1.000000e+00 1.284988e-16 1.850372e-16
    outer loop
      vertex   2.400000e+00 -1.051375e+02 1.425000e+01
      vertex   2.400000e+00 -2.565000e+01 9.450000e+00
      vertex   2.400000e+00 -2.565000e+01 1.425000e+01
    endloop
  endfacet
  facet normal 0.000000e+00 0.000000e+00 -1.000000e+00
    outer loop
      vertex   -2.400000e+00 1.051375e+02 9.450000e+00
      vertex   2.400000e+00 1.051375e+02 9.450000e+00
      vertex   -2.400000e+00 2.565000e+01 9.450000e+00
    endloop
  endfacet
  facet normal 0.000000e+00 0.000000e+00 -1.000000e+00
    outer loop
      vertex   -2.400000e+00 2.565000e+01 9.450000e+00
      vertex   2.400000e+00 1.051375e+02 9.450000e+00
      vertex   2.400000e+00 2.565000e+01 9.450000e+00
    endloop
  endfacet
  facet normal 0.000000e+00 0.000000e+00 -1.000000e+00
    outer loop
      vertex   2.400000e+00 -1.051375e+02 9.450000e+00
      vertex   -2.400000e+00 -1.051375e+02 9.450000e+00
      vertex   2.400000e+00 -2.565000e+01 9.450000e+00
    endloop
  endfacet
  facet normal -0.000000e+00 0.000000e+00 -1.000000e+00
    outer loop
      vertex   2.400000e+00 -2.565000e+01 9.450000e+00
      vertex   -2.400000e+00 -1.051375e+02 9.450000e+00
      vertex   -2.400000e+00 -2.565000e+01 9.450000e+00
    endloop
  endfacet
  facet normal -1.000000e+00 0.000000e+00 0.000000e+00
    outer loop
      vertex   -2.400000e+00 1.051375e+02 9.450000e+00
      vertex   -2.400000e+00 2.565000e+01 9.450000e+00
      vertex   -2.400000e+00 1.051375e+02 1.425000e+01
    endloop
  endfacet
  facet normal -1.000000e+00 5.586906e-18 -9.251859e-17
    outer loop
      vertex   -2.400000e+00 1.051375e+02 1.425000e+01
      vertex   -2.400000e+00 2.565000e+01 9.450000e+00
      vertex   -2.400000e+00 2.565000e+01 1.425000e+01
    endloop
  endfacet
  facet normal -1.000000e+00 -5.586906e-18 -0.000000e+00
    outer loop
      vertex   -2.400000e+00 -1.051375e+02 1.425000e+01
      vertex   -2.400000e+00 -2.565000e+01 1.425000e+01
      vertex   -2.400000e+00 -1.051375e+02 9.450000e+00
    endloop
  endfacet
  facet normal -1.000000e+00 0.000000e+00 -9.251859e-17
    outer loop
      vertex   -2.400000e+00 -1.051375e+02 9.450000e+00
      vertex   -2.400000e+00 -2.565000e+01 1.425000e+01
      vertex   -2.400000e+00 -2.565000e+01 9.450000e+00
    endloop
  endfacet
  facet normal -0.000000e+00 -1.000000e+00 -0.000000e+00
    outer loop
      vertex   6.626250e+01 -1.075375e+02 1.425000e+01
      vertex   -6.626250e+01 -1.075375e+02 1.425000e+01
      vertex   6.626250e+01 -1.075375e+02 -5.750000e+00
    endloop
  endfacet
  facet normal 0.000000e+00 -1.000000e+00 0.000000e+00
    outer loop
      vertex   6.626250e+01 -1.075375e+02 -5.750000e+00
      vertex   -6.626250e+01 -1.075375e+02 1.425000e+01
      vertex   -6.626250e+01 -1.075375e+02 -5.750000e+00
    endloop
  endfacet
  facet normal 0.000000e+00 -1.000000e+00 0.000000e+00
    outer loop
      vertex   2.400000e+00 1.051375e+02 1.425000e+01
      vertex   2.400000e+00 1.051375e+02 9.450000e+00
      vertex   6.386250e+01 1.051375e+02 1.425000e+01
    endloop
  endfacet
  facet normal 0.000000e+00 -1.000000e+00 0.000000e+00
    outer loop
      vertex   6.386250e+01 1.051375e+02 1.425000e+01
      vertex   2.400000e+00 1.051375e+02 9.450000e+00
      vertex   6.386250e+01 1.051375e+02 -5.750000e+00
    endloop
  endfacet
  facet normal -5.921189e-15 -1.000000e+00 -2.394284e-14
    outer loop
      vertex   6.386250e+01 1.051375e+02 -5.750000e+00
      vertex   2.400000e+00 1.051375e+02 9.450000e+00
      vertex   -2.400000e+00 1.051375e+02 9.450000e+00
    endloop
  endfacet
  facet normal 1.112613e-16 -1.000000e+00 2.354879e-15
    outer loop
      vertex   6.386250e+01 1.051375e+02 -5.750000e+00
      vertex   -2.400000e+00 1.051375e+02 9.450000e+00
      vertex   -6.386250e+01 1.051375e+02 -5.750000e+00
    endloop
  endfacet
  facet normal 8.693563e-16 -1.000000e+00 -7.105427e-16
    outer loop
      vertex   -6.386250e+01 1.051375e+02 -5.750000e+00
      vertex   -2.400000e+00 1.051375e+02 9.450000e+00
      vertex   -6.386250e+01 1.051375e+02 1.425000e+01
    endloop
  endfacet
  facet normal 9.248472e-16 -1.000000e+00 0.000000e+00
    outer loop
      vertex   -6.386250e+01 1.051375e+02 1.425000e+01
      vertex   -2.400000e+00 1.051375e+02 9.450000e+00
      vertex   -2.400000e+00 1.051375e+02 1.425000e+01
    endloop
  endfacet
  facet normal -1.480297e-16 -1.000000e+00 7.401487e-16
    outer loop
      vertex   2.400000e+00 -2.565000e+01 1.425000e+01
      vertex   2.400000e+00 -2.565000e+01 9.450000e+00
      vertex   2.640000e+01 -2.565000e+01 1.425000e+01
    endloop
  endfacet
  facet normal 0.000000e+00 -1.000000e+00 0.000000e+00
    outer loop
      vertex   2.640000e+01 -2.565000e+01 1.425000e+01
      vertex   2.400000e+00 -2.565000e+01 9.450000e+00
      vertex   2.640000e+01 -2.565000e+01 -6.250000e+00
    endloop
  endfacet
  facet normal 0.000000e+00 -1.000000e+00 0.000000e+00
    outer loop
      vertex   2.640000e+01 -2.565000e+01 -6.250000e+00
      vertex   2.400000e+00 -2.565000e+01 9.450000e+00
      vertex   -2.400000e+00 -2.565000e+01 9.450000e+00
    endloop
  endfacet
  facet normal 0.000000e+00 -1.000000e+00 0.000000e+00
    outer loop
      vertex   2.640000e+01 -2.565000e+01 -6.250000e+00
      vertex   -2.400000e+00 -2.565000e+01 9.450000e+00
      vertex   -2.640000e+01 -2.565000e+01 -6.250000e+00
    endloop
  endfacet
  facet normal -4.534765e-16 -1.000000e+00 6.932124e-16
    outer loop
      vertex   -2.640000e+01 -2.565000e+01 -6.250000e+00
      vertex   -2.400000e+00 -2.565000e+01 9.450000e+00
      vertex   -2.640000e+01 -2.565000e+01 1.425000e+01
    endloop
  endfacet
  facet normal -4.440892e-16 -1.000000e+00 7.401487e-16
    outer loop
      vertex   -2.640000e+01 -2.565000e+01 1.425000e+01
      vertex   -2.400000e+00 -2.565000e+01 9.450000e+00
      vertex   -2.400000e+00 -2.565000e+01 1.425000e+01
    endloop
  endfacet
  facet normal -1.185423e-17 1.000000e+00 9.251859e-17
    outer loop
      vertex   2.640000e+01 2.400000e+00 1.425000e+01
      vertex   6.386250e+01 2.400000e+00 1.425000e+01
      vertex   2.640000e+01 2.400000e+00 9.450000e+00
    endloop
  endfacet
  facet normal 0.000000e+00 1.000000e+00 0.000000e+00
    outer loop
      vertex   2.640000e+01 2.400000e+00 9.450000e+00
      vertex   6.386250e+01 2.400000e+00 1.425000e+01
      vertex   6.386250e+01 2.400000e+00 9.450000e+00
    endloop
  endfacet
  facet normal 0.000000e+00 -0.000000e+00 -1.000000e+00
    outer loop
      vertex   2.640000e+01 2.400000e+00 9.450000e+00
      vertex   6.386250e+01 2.400000e+00 9.450000e+00
      vertex   2.640000e+01 -2.400000e+00 9.450000e+00
    endloop
  endfacet
  facet normal 0.000000e+00 0.000000e+00 -1.000000e+00
    outer loop
      vertex   2.640000e+01 -2.400000e+00 9.450000e+00
      vertex   6.386250e+01 2.400000e+00 9.450000e+00
      vertex   6.386250e+01 -2.400000e+00 9.450000e+00
    endloop
  endfacet
  facet normal 0.000000e+00 0.000000e+00 -1.000000e+00
    outer loop
      vertex   -2.640000e+01 -2.400000e+00 9.450000e+00
      vertex   -6.386250e+01 -2.400000e+00 9.450000e+00
      vertex   -2.640000e+01 2.400000e+00 9.450000e+00
    endloop
  endfacet
  facet normal -0.000000e+00 0.000000e+00 -1.000000e+00
    outer loop
      vertex   -2.640000e+01 2.400000e+00 9.450000e+00
      vertex   -6.386250e+01 -2.400000e+00 9.450000e+00
      vertex   -6.386250e+01 2.400000e+00 9.450000e+00
    endloop
  endfacet
  facet normal 0.000000e+00 -1.000000e+00 -9.251859e-17
    outer loop
      vertex   2.640000e+01 -2.400000e+00 9.450000e+00
      vertex   6.386250e+01 -2.400000e+00 9.450000e+00
      vertex   2.640000e+01 -2.400000e+00 1.425000e+01
    endloop
  endfacet
  facet normal 1.185423e-17 -1.000000e+00 0.000000e+00
    outer loop
      vertex   2.640000e+01 -2.400000e+00 1.425000e+01
      vertex   6.386250e+01 -2.400000e+00 9.450000e+00
      vertex   6.386250e+01 -2.400000e+00 1.425000e+01
    endloop
  endfacet
  facet normal -1.185423e-17 -1.000000e+00 -9.251859e-17
    outer loop
      vertex   -2.640000e+01 -2.400000e+00 1.425000e+01
      vertex   -6.386250e+01 -2.400000e+00 1.425000e+01
      vertex   -2.640000e+01 -2.400000e+00 9.450000e+00
    endloop
  endfacet
  facet normal 0.000000e+00 -1.000000e+00 0.000000e+00
    outer loop
      vertex   -2.640000e+01 -2.400000e+00 9.450000e+00
      vertex   -6.386250e+01 -2.400000e+00 1.425000e+01
      vertex   -6.386250e+01 -2.400000e+00 9.450000e+00
    endloop
  endfacet
  facet normal 0.000000e+00 1.000000e+00 1.850372e-16
    outer loop
      vertex   -2.640000e+01 2.400000e+00 9.450000e+00
      vertex   -6.386250e+01 2.400000e+00 9.450000e+00
      vertex   -2.640000e+01 2.400000e+00 1.425000e+01
    endloop
  endfacet
  facet normal 2.370847e-17 1.000000e+00 0.000000e+00
    outer loop
      vertex   -2.640000e+01 2.400000e+00 1.425000e+01
      vertex   -6.386250e+01 2.400000e+00 9.450000e+00
      vertex   -6.386250e+01 2.400000e+00 1.425000e+01
    endloop
  endfacet
  facet normal 1.000000e+00 -0.000000e+00 0.000000e+00
    outer loop
      vertex   -6.386250e+01 2.400000e+00 1.425000e+01
      vertex   -6.386250e+01 2.400000e+00 9.450000e+00
      vertex   -6.386250e+01 1.051375e+02 1.425000e+01
    endloop
  endfacet
  facet normal 1.000000e+00 0.000000e+00 0.000000e+00
    outer loop
      vertex   -6.386250e+01 1.051375e+02 1.425000e+01
      vertex   -6.386250e+01 2.400000e+00 9.450000e+00
      vertex   -6.386250e+01 1.051375e+02 -5.750000e+00
    endloop
  endfacet
  facet normal 1.000000e+00 0.000000e+00 0.000000e+00
    outer loop
      vertex   -6.386250e+01 1.051375e+02 -5.750000e+00
      vertex   -6.386250e+01 2.400000e+00 9.450000e+00
      vertex   -6.386250e+01 -2.400000e+00 9.450000e+00
    endloop
  endfacet
  facet normal 1.000000e+00 0.000000e+00 0.000000e+00
    outer loop
      vertex   -6.386250e+01 1.051375e+02 -5.750000e+00
      vertex   -6.386250e+01 -2.400000e+00 9.450000e+00
      vertex   -6.386250e+01 -1.051375e+02 -5.750000e+00
    endloop
  endfacet
  facet normal 1.000000e+00 0.000000e+00 0.000000e+00
    outer loop
      vertex   -6.386250e+01 -1.051375e+02 -5.750000e+00
      vertex   -6.386250e+01 -2.400000e+00 9.450000e+00
      vertex   -6.386250e+01 -1.051375e+02 1.425000e+01
    endloop
  endfacet
  facet normal 1.000000e+00 -0.000000e+00 0.000000e+00
    outer loop
      vertex   -6.386250e+01 -1.051375e+02 1.425000e+01
      vertex   -6.386250e+01 -2.400000e+00 9.450000e+00
      vertex   -6.386250e+01 -2.400000e+00 1.425000e+01
    endloop
  endfacet
  facet normal 1.000000e+00 1.982218e-16 0.000000e+00
    outer loop
      vertex   6.626250e+01 1.075375e+02 1.425000e+01
      vertex   6.626250e+01 -1.075375e+02 1.425000e+01
      vertex   6.626250e+01 1.075375e+02 -5.750000e+00
    endloop
  endfacet
  facet normal 1.000000e+00 1.982218e-16 0.000000e+00
    outer loop
      vertex   6.626250e+01 1.075375e+02 -5.750000e+00
      vertex   6.626250e+01 -1.075375e+02 1.425000e+01
      vertex   6.626250e+01 -1.075375e+02 -5.750000e+00
    endloop
  endfacet
  facet normal -1.000000e+00 0.000000e+00 0.000000e+00
    outer loop
      vertex   -6.626250e+01 -1.075375e+02 1.425000e+01
      vertex   -6.626250e+01 1.075375e+02 1.425000e+01
      vertex   -6.626250e+01 -1.075375e+02 -5.750000e+00
    endloop
  endfacet
  facet normal -1.000000e+00 0.000000e+00 0.000000e+00
    outer loop
      vertex   -6.626250e+01 -1.075375e+02 -5.750000e+00
      vertex   -6.626250e+01 1.075375e+02 1.425000e+01
      vertex   -6.626250e+01 1.075375e+02 -5.750000e+00
    endloop
  endfacet
  facet normal -0.000000e+00 1.000000e+00 0.000000e+00
    outer loop
      vertex   -6.626250e+01 1.075375e+02 1.425000e+01
      vertex   6.626250e+01 1.075375e+02 1.425000e+01
      vertex   -6.626250e+01 1.075375e+02 -5.750000e+00
    endloop
  endfacet
  facet normal 0.000000e+00 1.000000e+00 0.000000e+00
    outer loop
      vertex   -6.626250e+01 1.075375e+02 -5.750000e+00
      vertex   6.626250e+01 1.075375e+02 1.425000e+01
      vertex   6.626250e+01 1.075375e+02 -5.750000e+00
    endloop
  endfacet
  facet normal 0.000000e+00 0.000000e+00 -1.000000e+00
    outer loop
      vertex   6.386250e+01 1.051375e+02 -5.750000e+00
      vertex   6.626250e+01 -1.075375e+02 -5.750000e+00
      vertex   6.386250e+01 -1.051375e+02 -5.750000e+00
    endloop
  endfacet
  facet normal 0.000000e+00 -0.000000e+00 -1.000000e+00
    outer loop
      vertex   6.386250e+01 -1.051375e+02 -5.750000e+00
      vertex   6.626250e+01 -1.075375e+02 -5.750000e+00
      vertex   -6.626250e+01 -1.075375e+02 -5.750000e+00
    endloop
  endfacet
  facet normal 0.000000e+00 0.000000e+00 -1.000000e+00
    outer loop
      vertex   6.386250e+01 -1.051375e+02 -5.750000e+00
      vertex   -6.626250e+01 -1.075375e+02 -5.750000e+00
      vertex   -6.386250e+01 -1.051375e+02 -5.750000e+00
    endloop
  endfacet
  facet normal -0.000000e+00 0.000000e+00 -1.000000e+00
    outer loop
      vertex   -6.386250e+01 -1.051375e+02 -5.750000e+00
      vertex   -6.626250e+01 -1.075375e+02 -5.750000e+00
      vertex   -6.386250e+01 1.051375e+02 -5.750000e+00
    endloop
  endfacet
  facet normal -0.000000e+00 0.000000e+00 -1.000000e+00
    outer loop
      vertex   -6.386250e+01 1.051375e+02 -5.750000e+00
      vertex   -6.626250e+01 -1.075375e+02 -5.750000e+00
      vertex   -6.626250e+01 1.075375e+02 -5.750000e+00
    endloop
  endfacet
  facet normal 0.000000e+00 0.000000e+00 -1.000000e+00
    outer loop
      vertex   -6.386250e+01 1.051375e+02 -5.750000e+00
      vertex   -6.626250e+01 1.075375e+02 -5.750000e+00
      vertex   6.626250e+01 1.075375e+02 -5.750000e+00
    endloop
  endfacet
  facet normal 0.000000e+00 0.000000e+00 -1.000000e+00
    outer loop
      vertex   6.626250e+01 -1.075375e+02 -5.750000e+00
      vertex   6.386250e+01 1.051375e+02 -5.750000e+00
      vertex   6.626250e+01 1.075375e+02 -5.750000e+00
    endloop
  endfacet
  facet normal 0.000000e+00 0.000000e+00 -1.000000e+00
    outer loop
      vertex   6.626250e+01 1.075375e+02 -5.750000e+00
      vertex   6.386250e+01 1.051375e+02 -5.750000e+00
      vertex   -6.386250e+01 1.051375e+02 -5.750000e+00
    endloop
  endfacet
  facet normal -6.936354e-16 1.000000e+00 0.000000e+00
    outer loop
      vertex   2.400000e+00 -1.051375e+02 1.425000e+01
      vertex   6.386250e+01 -1.051375e+02 1.425000e+01
      vertex   2.400000e+00 -1.051375e+02 9.450000e+00
    endloop
  endfacet
  facet normal -6.381445e-16 1.000000e+00 -7.105427e-16
    outer loop
      vertex   2.400000e+00 -1.051375e+02 9.450000e+00
      vertex   6.386250e+01 -1.051375e+02 1.425000e+01
      vertex   6.386250e+01 -1.051375e+02 -5.750000e+00
    endloop
  endfacet
  facet normal -1.112613e-16 1.000000e+00 1.419955e-15
    outer loop
      vertex   2.400000e+00 -1.051375e+02 9.450000e+00
      vertex   6.386250e+01 -1.051375e+02 -5.750000e+00
      vertex   -6.386250e+01 -1.051375e+02 -5.750000e+00
    endloop
  endfacet
  facet normal 2.960595e-15 1.000000e+00 -1.197142e-14
    outer loop
      vertex   2.400000e+00 -1.051375e+02 9.450000e+00
      vertex   -6.386250e+01 -1.051375e+02 -5.750000e+00
      vertex   -2.400000e+00 -1.051375e+02 9.450000e+00
    endloop
  endfacet
  facet normal 0.000000e+00 1.000000e+00 0.000000e+00
    outer loop
      vertex   -2.400000e+00 -1.051375e+02 9.450000e+00
      vertex   -6.386250e+01 -1.051375e+02 -5.750000e+00
      vertex   -6.386250e+01 -1.051375e+02 1.425000e+01
    endloop
  endfacet
  facet normal 0.000000e+00 1.000000e+00 -0.000000e+00
    outer loop
      vertex   -2.400000e+00 -1.051375e+02 9.450000e+00
      vertex   -6.386250e+01 -1.051375e+02 1.425000e+01
      vertex   -2.400000e+00 -1.051375e+02 1.425000e+01
    endloop
  endfacet
  facet normal -1.000000e+00 -1.383220e-16 -0.000000e+00
    outer loop
      vertex   6.386250e+01 2.400000e+00 1.425000e+01
      vertex   6.386250e+01 1.051375e+02 1.425000e+01
      vertex   6.386250e+01 2.400000e+00 9.450000e+00
    endloop
  endfacet
  facet normal -1.000000e+00 -1.715193e-16 7.105427e-16
    outer loop
      vertex   6.386250e+01 2.400000e+00 9.450000e+00
      vertex   6.386250e+01 1.051375e+02 1.425000e+01
      vertex   6.386250e+01 1.051375e+02 -5.750000e+00
    endloop
  endfacet
  facet normal -1.000000e+00 -3.041201e-16 -1.857122e-16
    outer loop
      vertex   6.386250e+01 2.400000e+00 9.450000e+00
      vertex   6.386250e+01 1.051375e+02 -5.750000e+00
      vertex   6.386250e+01 -1.051375e+02 -5.750000e+00
    endloop
  endfacet
  facet normal -1.000000e+00 -1.480297e-15 8.135549e-15
    outer loop
      vertex   6.386250e+01 2.400000e+00 9.450000e+00
      vertex   6.386250e+01 -1.051375e+02 -5.750000e+00
      vertex   6.386250e+01 -2.400000e+00 9.450000e+00
    endloop
  endfacet
  facet normal -1.000000e+00 -2.766440e-16 1.965674e-31
    outer loop
      vertex   6.386250e+01 -2.400000e+00 9.450000e+00
      vertex   6.386250e+01 -1.051375e+02 -5.750000e+00
      vertex   6.386250e+01 -1.051375e+02 1.425000e+01
    endloop
  endfacet
  facet normal -1.000000e+00 -2.766440e-16 0.000000e+00
    outer loop
      vertex   6.386250e+01 -2.400000e+00 9.450000e+00
      vertex   6.386250e+01 -1.051375e+02 1.425000e+01
      vertex   6.386250e+01 -2.400000e+00 1.425000e+01
    endloop
  endfacet
  facet normal 1.000000e+00 -0.000000e+00 1.480297e-15
    outer loop
      vertex   2.640000e+01 2.400000e+00 1.425000e+01
      vertex   2.640000e+01 2.400000e+00 9.450000e+00
      vertex   2.640000e+01 2.565000e+01 1.425000e+01
    endloop
  endfacet
  facet normal 1.000000e+00 3.056098e-16 0.000000e+00
    outer loop
      vertex   2.640000e+01 2.565000e+01 1.425000e+01
      vertex   2.640000e+01 2.400000e+00 9.450000e+00
      vertex   2.640000e+01 2.565000e+01 -6.250000e+00
    endloop
  endfacet
  facet normal 1.000000e+00 -2.960595e-15 -4.836895e-15
    outer loop
      vertex   2.640000e+01 2.565000e+01 -6.250000e+00
      vertex   2.640000e+01 2.400000e+00 9.450000e+00
      vertex   2.640000e+01 -2.400000e+00 9.450000e+00
    endloop
  endfacet
  facet normal 1.000000e+00 -1.385074e-16 2.051144e-16
    outer loop
      vertex   2.640000e+01 2.565000e+01 -6.250000e+00
      vertex   2.640000e+01 -2.400000e+00 9.450000e+00
      vertex   2.640000e+01 -2.565000e+01 -6.250000e+00
    endloop
  endfacet
  facet normal 1.000000e+00 3.510786e-16 -5.199093e-16
    outer loop
      vertex   2.640000e+01 -2.565000e+01 -6.250000e+00
      vertex   2.640000e+01 -2.400000e+00 9.450000e+00
      vertex   2.640000e+01 -2.565000e+01 1.425000e+01
    endloop
  endfacet
  facet normal 1.000000e+00 1.528049e-16 -1.480297e-15
    outer loop
      vertex   2.640000e+01 -2.565000e+01 1.425000e+01
      vertex   2.640000e+01 -2.400000e+00 9.450000e+00
      vertex   2.640000e+01 -2.400000e+00 1.425000e+01
    endloop
  endfacet
  facet normal -0.000000e+00 0.000000e+00 1.000000e+00
    outer loop
      vertex   -6.386250e+01 -1.051375e+02 1.425000e+01
      vertex   -6.626250e+01 -1.075375e+02 1.425000e+01
      vertex   -2.400000e+00 -1.051375e+02 1.425000e+01
    endloop
  endfacet
  facet normal 0.000000e+00 0.000000e+00 1.000000e+00
    outer loop
      vertex   -2.400000e+00 -1.051375e+02 1.425000e+01
      vertex   -6.626250e+01 -1.075375e+02 1.425000e+01
      vertex   6.626250e+01 -1.075375e+02 1.425000e+01
    endloop
  endfacet
  facet normal 0.000000e+00 0.000000e+00 1.000000e+00
    outer loop
      vertex   -2.400000e+00 -1.051375e+02 1.425000e+01
      vertex   6.626250e+01 -1.075375e+02 1.425000e+01
      vertex   2.400000e+00 -1.051375e+02 1.425000e+01
    endloop
  endfacet
  facet normal -0.000000e+00 0.000000e+00 1.000000e+00
    outer loop
      vertex   2.400000e+00 -1.051375e+02 1.425000e+01
      vertex   6.626250e+01 -1.075375e+02 1.425000e+01
      vertex   6.386250e+01 -1.051375e+02 1.425000e+01
    endloop
  endfacet
  facet normal -0.000000e+00 -0.000000e+00 1.000000e+00
    outer loop
      vertex   6.386250e+01 -1.051375e+02 1.425000e+01
      vertex   6.626250e+01 -1.075375e+02 1.425000e+01
      vertex   6.386250e+01 -2.400000e+00 1.425000e+01
    endloop
  endfacet
  facet normal -0.000000e+00 -0.000000e+00 1.000000e+00
    outer loop
      vertex   6.386250e+01 -2.400000e+00 1.425000e+01
      vertex   6.626250e+01 -1.075375e+02 1.425000e+01
      vertex   6.386250e+01 2.400000e+00 1.425000e+01
    endloop
  endfacet
  facet normal 0.000000e+00 0.000000e+00 1.000000e+00
    outer loop
      vertex   6.386250e+01 -2.400000e+00 1.425000e+01
      vertex   6.386250e+01 2.400000e+00 1.425000e+01
      vertex   2.640000e+01 2.400000e+00 1.425000e+01
    endloop
  endfacet
  facet normal 0.000000e+00 -0.000000e+00 1.000000e+00
    outer loop
      vertex   -6.386250e+01 -1.051375e+02 1.425000e+01
      vertex   -6.386250e+01 -2.400000e+00 1.425000e+01
      vertex   -6.626250e+01 -1.075375e+02 1.425000e+01
    endloop
  endfacet
  facet normal 0.000000e+00 0.000000e+00 1.000000e+00
    outer loop
      vertex   -6.626250e+01 -1.075375e+02 1.425000e+01
      vertex   -6.386250e+01 -2.400000e+00 1.425000e+01
      vertex   -6.386250e+01 2.400000e+00 1.425000e+01
    endloop
  endfacet
  facet normal 0.000000e+00 0.000000e+00 1.000000e+00
    outer loop
      vertex   -6.626250e+01 -1.075375e+02 1.425000e+01
      vertex   -6.386250e+01 2.400000e+00 1.425000e+01
      vertex   -6.626250e+01 1.075375e+02 1.425000e+01
    endloop
  endfacet
  facet normal 0.000000e+00 0.000000e+00 1.000000e+00
    outer loop
      vertex   -6.626250e+01 1.075375e+02 1.425000e+01
      vertex   -6.386250e+01 2.400000e+00 1.425000e+01
      vertex   -6.386250e+01 1.051375e+02 1.425000e+01
    endloop
  endfacet
  facet normal 0.000000e+00 0.000000e+00 1.000000e+00
    outer loop
      vertex   -6.626250e+01 1.075375e+02 1.425000e+01
      vertex   -6.386250e+01 1.051375e+02 1.425000e+01
      vertex   -2.400000e+00 1.051375e+02 1.425000e+01
    endloop
  endfacet
  facet normal -0.000000e+00 0.000000e+00 1.000000e+00
    outer loop
      vertex   -6.386250e+01 -2.400000e+00 1.425000e+01
      vertex   -2.640000e+01 -2.400000e+00 1.425000e+01
      vertex   -6.386250e+01 2.400000e+00 1.425000e+01
    endloop
  endfacet
  facet normal 0.000000e+00 0.000000e+00 1.000000e+00
    outer loop
      vertex   -6.386250e+01 2.400000e+00 1.425000e+01
      vertex   -2.640000e+01 -2.400000e+00 1.425000e+01
      vertex   -2.640000e+01 2.400000e+00 1.425000e+01
    endloop
  endfacet
  facet normal 0.000000e+00 0.000000e+00 1.000000e+00
    outer loop
      vertex   -2.640000e+01 2.400000e+00 1.425000e+01
      vertex   -2.640000e+01 -2.400000e+00 1.425000e+01
      vertex   -2.400000e+00 -2.565000e+01 1.425000e+01
    endloop
  endfacet
  facet normal -0.000000e+00 0.000000e+00 1.000000e+00
    outer loop
      vertex   -2.640000e+01 2.400000e+00 1.425000e+01
      vertex   -2.400000e+00 -2.565000e+01 1.425000e+01
      vertex   -2.400000e+00 2.565000e+01 1.425000e+01
    endloop
  endfacet
  facet normal 0.000000e+00 0.000000e+00 1.000000e+00
    outer loop
      vertex   -2.400000e+00 2.565000e+01 1.425000e+01
      vertex   -2.400000e+00 -2.565000e+01 1.425000e+01
      vertex   2.400000e+00 -2.565000e+01 1.425000e+01
    endloop
  endfacet
  facet normal -0.000000e+00 0.000000e+00 1.000000e+00
    outer loop
      vertex   -2.400000e+00 2.565000e+01 1.425000e+01
      vertex   2.400000e+00 -2.565000e+01 1.425000e+01
      vertex   2.400000e+00 2.565000e+01 1.425000e+01
    endloop
  endfacet
  facet normal 0.000000e+00 0.000000e+00 1.000000e+00
    outer loop
      vertex   2.400000e+00 2.565000e+01 1.425000e+01
      vertex   2.400000e+00 -2.565000e+01 1.425000e+01
      vertex   2.640000e+01 2.400000e+00 1.425000e+01
    endloop
  endfacet
  facet normal -0.000000e+00 0.000000e+00 1.000000e+00
    outer loop
      vertex   2.400000e+00 2.565000e+01 1.425000e+01
      vertex   2.640000e+01 2.400000e+00 1.425000e+01
      vertex   2.640000e+01 2.565000e+01 1.425000e+01
    endloop
  endfacet
  facet normal 0.000000e+00 0.000000e+00 1.000000e+00
    outer loop
      vertex   -2.640000e+01 -2.400000e+00 1.425000e+01
      vertex   -2.640000e+01 -2.565000e+01 1.425000e+01
      vertex   -2.400000e+00 -2.565000e+01 1.425000e+01
    endloop
  endfacet
  facet normal 0.000000e+00 0.000000e+00 1.000000e+00
    outer loop
      vertex   2.400000e+00 -2.565000e+01 1.425000e+01
      vertex   -2.400000e+00 -2.565000e+01 1.425000e+01
      vertex   2.400000e+00 -1.051375e+02 1.425000e+01
    endloop
  endfacet
  facet normal 0.000000e+00 0.000000e+00 1.000000e+00
    outer loop
      vertex   2.400000e+00 -1.051375e+02 1.425000e+01
      vertex   -2.400000e+00 -2.565000e+01 1.425000e+01
      vertex   -2.400000e+00 -1.051375e+02 1.425000e+01
    endloop
  endfacet
  facet normal 0.000000e+00 -0.000000e+00 1.000000e+00
    outer loop
      vertex   6.386250e+01 1.051375e+02 1.425000e+01
      vertex   6.626250e+01 1.075375e+02 1.425000e+01
      vertex   2.400000e+00 1.051375e+02 1.425000e+01
    endloop
  endfacet
  facet normal 0.000000e+00 -0.000000e+00 1.000000e+00
    outer loop
      vertex   2.400000e+00 1.051375e+02 1.425000e+01
      vertex   6.626250e+01 1.075375e+02 1.425000e+01
      vertex   -6.626250e+01 1.075375e+02 1.425000e+01
    endloop
  endfacet
  facet normal 0.000000e+00 0.000000e+00 1.000000e+00
    outer loop
      vertex   2.400000e+00 1.051375e+02 1.425000e+01
      vertex   -6.626250e+01 1.075375e+02 1.425000e+01
      vertex   -2.400000e+00 1.051375e+02 1.425000e+01
    endloop
  endfacet
  facet normal -0.000000e+00 0.000000e+00 1.000000e+00
    outer loop
      vertex   6.386250e+01 1.051375e+02 1.425000e+01
      vertex   6.386250e+01 2.400000e+00 1.425000e+01
      vertex   6.626250e+01 1.075375e+02 1.425000e+01
    endloop
  endfacet
  facet normal 0.000000e+00 0.000000e+00 1.000000e+00
    outer loop
      vertex   6.626250e+01 1.075375e+02 1.425000e+01
      vertex   6.386250e+01 2.400000e+00 1.425000e+01
      vertex   6.626250e+01 -1.075375e+02 1.425000e+01
    endloop
  endfacet
  facet normal 0.000000e+00 0.000000e+00 1.000000e+00
    outer loop
      vertex   -2.400000e+00 2.565000e+01 1.425000e+01
      vertex   2.400000e+00 2.565000e+01 1.425000e+01
      vertex   -2.400000e+00 1.051375e+02 1.425000e+01
    endloop
  endfacet
  facet normal 0.000000e+00 0.000000e+00 1.000000e+00
    outer loop
      vertex   -2.400000e+00 1.051375e+02 1.425000e+01
      vertex   2.400000e+00 2.565000e+01 1.425000e+01
      vertex   2.400000e+00 1.051375e+02 1.425000e+01
    endloop
  endfacet
  facet normal 0.000000e+00 0.000000e+00 1.000000e+00
    outer loop
      vertex   -2.400000e+00 2.565000e+01 1.425000e+01
      vertex   -2.640000e+01 2.565000e+01 1.425000e+01
      vertex   -2.640000e+01 2.400000e+00 1.425000e+01
    endloop
  endfacet
  facet normal 0.000000e+00 0.000000e+00 1.000000e+00
    outer loop
      vertex   2.640000e+01 -2.565000e+01 1.425000e+01
      vertex   2.640000e+01 -2.400000e+00 1.425000e+01
      vertex   2.400000e+00 -2.565000e+01 1.425000e+01
    endloop
  endfacet
  facet normal 0.000000e+00 0.000000e+00 1.000000e+00
    outer loop
      vertex   2.400000e+00 -2.565000e+01 1.425000e+01
      vertex   2.640000e+01 -2.400000e+00 1.425000e+01
      vertex   2.640000e+01 2.400000e+00 1.425000e+01
    endloop
  endfacet
  facet normal 0.000000e+00 0.000000e+00 1.000000e+00
    outer loop
      vertex   2.640000e+01 -2.400000e+00 1.425000e+01
      vertex   6.386250e+01 -2.400000e+00 1.425000e+01
      vertex   2.640000e+01 2.400000e+00 1.425000e+01
    endloop
  endfacet
  facet normal -0.000000e+00 -1.000000e+00 -0.000000e+00
    outer loop
      vertex   2.400000e+01 2.325000e+01 0.000000e+00
      vertex   -2.400000e+01 2.325000e+01 0.000000e+00
      vertex   2.400000e+01 2.325000e+01 -6.250000e+00
    endloop
  endfacet
  facet normal 0.000000e+00 -1.000000e+00 0.000000e+00
    outer loop
      vertex   2.400000e+01 2.325000e+01 -6.250000e+00
      vertex   -2.400000e+01 2.325000e+01 0.000000e+00
      vertex   -2.400000e+01 2.325000e+01 -6.250000e+00
    endloop
  endfacet
  facet normal 1.000000e+00 0.000000e+00 -5.684342e-16
    outer loop
      vertex   -2.400000e+01 2.325000e+01 0.000000e+00
      vertex   -2.400000e+01 -2.325000e+01 0.000000e+00
      vertex   -2.400000e+01 2.325000e+01 -6.250000e+00
    endloop
  endfacet
  facet normal 1.000000e+00 0.000000e+00 -5.684342e-16
    outer loop
      vertex   -2.400000e+01 2.325000e+01 -6.250000e+00
      vertex   -2.400000e+01 -2.325000e+01 0.000000e+00
      vertex   -2.400000e+01 -2.325000e+01 -6.250000e+00
    endloop
  endfacet
  facet normal -0.000000e+00 1.000000e+00 0.000000e+00
    outer loop
      vertex   -2.400000e+01 -2.325000e+01 0.000000e+00
      vertex   2.400000e+01 -2.325000e+01 0.000000e+00
      vertex   -2.400000e+01 -2.325000e+01 -6.250000e+00
    endloop
  endfacet
  facet normal 0.000000e+00 1.000000e+00 0.000000e+00
    outer loop
      vertex   -2.400000e+01 -2.325000e+01 -6.250000e+00
      vertex   2.400000e+01 -2.325000e+01 0.000000e+00
      vertex   2.400000e+01 -2.325000e+01 -6.250000e+00
    endloop
  endfacet
  facet normal -1.000000e+00 7.640244e-17 0.000000e+00
    outer loop
      vertex   2.400000e+01 -2.325000e+01 0.000000e+00
      vertex   2.400000e+01 2.325000e+01 0.000000e+00
      vertex   2.400000e+01 -2.325000e+01 -6.250000e+00
    endloop
  endfacet
  facet normal -1.000000e+00 7.640244e-17 0.000000e+00
    outer loop
      vertex   2.400000e+01 -2.325000e+01 -6.250000e+00
      vertex   2.400000e+01 2.325000e+01 0.000000e+00
      vertex   2.400000e+01 2.325000e+01 -6.250000e+00
    endloop
  endfacet
  facet normal 0.000000e+00 0.000000e+00 -1.000000e+00
    outer loop
      vertex   2.400000e+01 -2.325000e+01 0.000000e+00
      vertex   -2.400000e+01 -2.325000e+01 0.000000e+00
      vertex   2.400000e+01 2.325000e+01 0.000000e+00
    endloop
  endfacet
  facet normal -0.000000e+00 0.000000e+00 -1.000000e+00
    outer loop
      vertex   2.400000e+01 2.325000e+01 0.000000e+00
      vertex   -2.400000e+01 -2.325000e+01 0.000000e+00
      vertex   -2.400000e+01 2.325000e+01 0.000000e+00
    endloop
  endfacet
  facet normal -0.000000e+00 1.000000e+00 0.000000e+00
    outer loop
      vertex   2.400000e+00 2.565000e+01 1.425000e+01
      vertex   2.640000e+01 2.565000e+01 1.425000e+01
      vertex   2.400000e+00 2.565000e+01 9.450000e+00
    endloop
  endfacet
  facet normal -0.000000e+00 1.000000e+00 0.000000e+00
    outer loop
      vertex   2.400000e+00 2.565000e+01 9.450000e+00
      vertex   2.640000e+01 2.565000e+01 1.425000e+01
      vertex   2.640000e+01 2.565000e+01 -6.250000e+00
    endloop
  endfacet
  facet normal 0.000000e+00 1.000000e+00 0.000000e+00
    outer loop
      vertex   2.400000e+00 2.565000e+01 9.450000e+00
      vertex   2.640000e+01 2.565000e+01 -6.250000e+00
      vertex   -2.640000e+01 2.565000e+01 -6.250000e+00
    endloop
  endfacet
  facet normal 0.000000e+00 1.000000e+00 0.000000e+00
    outer loop
      vertex   2.400000e+00 2.565000e+01 9.450000e+00
      vertex   -2.640000e+01 2.565000e+01 -6.250000e+00
      vertex   -2.400000e+00 2.565000e+01 9.450000e+00
    endloop
  endfacet
  facet normal -1.133691e-16 1.000000e+00 1.733031e-16
    outer loop
      vertex   -2.400000e+00 2.565000e+01 9.450000e+00
      vertex   -2.640000e+01 2.565000e+01 -6.250000e+00
      vertex   -2.640000e+01 2.565000e+01 1.425000e+01
    endloop
  endfacet
  facet normal -1.480297e-16 1.000000e+00 -1.369550e-32
    outer loop
      vertex   -2.400000e+00 2.565000e+01 9.450000e+00
      vertex   -2.640000e+01 2.565000e+01 1.425000e+01
      vertex   -2.400000e+00 2.565000e+01 1.425000e+01
    endloop
  endfacet
  facet normal -1.000000e+00 1.528049e-16 7.401487e-16
    outer loop
      vertex   -2.640000e+01 2.400000e+00 1.425000e+01
      vertex   -2.640000e+01 2.565000e+01 1.425000e+01
      vertex   -2.640000e+01 2.400000e+00 9.450000e+00
    endloop
  endfacet
  facet normal -1.000000e+00 2.340524e-16 3.466062e-16
    outer loop
      vertex   -2.640000e+01 2.400000e+00 9.450000e+00
      vertex   -2.640000e+01 2.565000e+01 1.425000e+01
      vertex   -2.640000e+01 2.565000e+01 -6.250000e+00
    endloop
  endfacet
  facet normal -1.000000e+00 0.000000e+00 -0.000000e+00
    outer loop
      vertex   -2.640000e+01 2.400000e+00 9.450000e+00
      vertex   -2.640000e+01 2.565000e+01 -6.250000e+00
      vertex   -2.640000e+01 -2.565000e+01 -6.250000e+00
    endloop
  endfacet
  facet normal -1.000000e+00 -1.480297e-15 2.644735e-15
    outer loop
      vertex   -2.640000e+01 2.400000e+00 9.450000e+00
      vertex   -2.640000e+01 -2.565000e+01 -6.250000e+00
      vertex   -2.640000e+01 -2.400000e+00 9.450000e+00
    endloop
  endfacet
  facet normal -1.000000e+00 1.885836e-16 1.733031e-16
    outer loop
      vertex   -2.640000e+01 -2.400000e+00 9.450000e+00
      vertex   -2.640000e+01 -2.565000e+01 -6.250000e+00
      vertex   -2.640000e+01 -2.565000e+01 1.425000e+01
    endloop
  endfacet
  facet normal -1.000000e+00 0.000000e+00 -7.401487e-16
    outer loop
      vertex   -2.640000e+01 -2.400000e+00 9.450000e+00
      vertex   -2.640000e+01 -2.565000e+01 1.425000e+01
      vertex   -2.640000e+01 -2.400000e+00 1.425000e+01
    endloop
  endfacet
  facet normal 0.000000e+00 0.000000e+00 -1.000000e+00
    outer loop
      vertex   -2.400000e+01 2.325000e+01 -6.250000e+00
      vertex   2.640000e+01 2.565000e+01 -6.250000e+00
      vertex   2.400000e+01 2.325000e+01 -6.250000e+00
    endloop
  endfacet
  facet normal 0.000000e+00 0.000000e+00 -1.000000e+00
    outer loop
      vertex   2.400000e+01 2.325000e+01 -6.250000e+00
      vertex   2.640000e+01 2.565000e+01 -6.250000e+00
      vertex   2.640000e+01 -2.565000e+01 -6.250000e+00
    endloop
  endfacet
  facet normal 0.000000e+00 -0.000000e+00 -1.000000e+00
    outer loop
      vertex   2.400000e+01 2.325000e+01 -6.250000e+00
      vertex   2.640000e+01 -2.565000e+01 -6.250000e+00
      vertex   2.400000e+01 -2.325000e+01 -6.250000e+00
    endloop
  endfacet
  facet normal 0.000000e+00 -0.000000e+00 -1.000000e+00
    outer loop
      vertex   2.400000e+01 -2.325000e+01 -6.250000e+00
      vertex   2.640000e+01 -2.565000e+01 -6.250000e+00
      vertex   -2.640000e+01 -2.565000e+01 -6.250000e+00
    endloop
  endfacet
  facet normal -0.000000e+00 0.000000e+00 -1.000000e+00
    outer loop
      vertex   2.400000e+01 -2.325000e+01 -6.250000e+00
      vertex   -2.640000e+01 -2.565000e+01 -6.250000e+00
      vertex   -2.400000e+01 -2.325000e+01 -6.250000e+00
    endloop
  endfacet
  facet normal -0.000000e+00 0.000000e+00 -1.000000e+00
    outer loop
      vertex   -2.400000e+01 -2.325000e+01 -6.250000e+00
      vertex   -2.640000e+01 -2.565000e+01 -6.250000e+00
      vertex   -2.400000e+01 2.325000e+01 -6.250000e+00
    endloop
  endfacet
  facet normal -0.000000e+00 0.000000e+00 -1.000000e+00
    outer loop
      vertex   -2.400000e+01 2.325000e+01 -6.250000e+00
      vertex   -2.640000e+01 -2.565000e+01 -6.250000e+00
      vertex   -2.640000e+01 2.565000e+01 -6.250000e+00
    endloop
  endfacet
  facet normal 0.000000e+00 0.000000e+00 -1.000000e+00
    outer loop
      vertex   -2.400000e+01 2.325000e+01 -6.250000e+00
      vertex   -2.640000e+01 2.565000e+01 -6.250000e+00
      vertex   2.640000e+01 2.565000e+01 -6.250000e+00
    endloop
  endfacet
endsolid
