solid am4 cpu box
facet normal 0.0 0.0 -1.0
  outer loop
    vertex 41.5 41.5 1.5
    vertex 2.5 2.5 1.5
    vertex 2.5 41.5 1.5
  endloop
endfacet
facet normal 0.0 0.0 -1.0
  outer loop
    vertex 2.5 2.5 1.5
    vertex 41.5 41.5 1.5
    vertex 41.5 2.5 1.5
  endloop
endfacet
facet normal -0.0 -1.0 -0.0
  outer loop
    vertex 44.00000000000001 0.0 8.249999999999998
    vertex 0.0 0.0 0.0
    vertex 44.00000000000001 0.0 0.0
  endloop
endfacet
facet normal -0.0 -1.0 -0.0
  outer loop
    vertex 0.0 0.0 0.0
    vertex 44.00000000000001 0.0 8.249999999999998
    vertex 0.0 0.0 8.249999999999998
  endloop
endfacet
facet normal 1.0 0.0 0.0
  outer loop
    vertex 44.00000000000001 44.00000000000001 0.0
    vertex 44.00000000000001 0.0 8.249999999999998
    vertex 44.00000000000001 0.0 0.0
  endloop
endfacet
facet normal 1.0 0.0 0.0
  outer loop
    vertex 44.00000000000001 0.0 8.249999999999998
    vertex 44.00000000000001 44.00000000000001 0.0
    vertex 44.00000000000001 44.00000000000001 8.249999999999998
  endloop
endfacet
facet normal -1.0 0.0 0.0
  outer loop
    vertex 0.0 44.00000000000001 8.249999999999998
    vertex 0.0 0.0 0.0
    vertex 0.0 0.0 8.249999999999998
  endloop
endfacet
facet normal -1.0 0.0 0.0
  outer loop
    vertex 0.0 0.0 0.0
    vertex 0.0 44.00000000000001 8.249999999999998
    vertex 0.0 44.00000000000001 0.0
  endloop
endfacet
facet normal 0.0 0.0 -1.0
  outer loop
    vertex 44.00000000000001 44.00000000000001 0.0
    vertex 0.0 0.0 0.0
    vertex 0.0 44.00000000000001 0.0
  endloop
endfacet
facet normal 0.0 0.0 -1.0
  outer loop
    vertex 0.0 0.0 0.0
    vertex 44.00000000000001 44.00000000000001 0.0
    vertex 44.00000000000001 0.0 0.0
  endloop
endfacet
facet normal 0.0 1.0 0.0
  outer loop
    vertex 0.0 44.00000000000001 8.249999999999998
    vertex 44.00000000000001 44.00000000000001 0.0
    vertex 0.0 44.00000000000001 0.0
  endloop
endfacet
facet normal 0.0 1.0 0.0
  outer loop
    vertex 44.00000000000001 44.00000000000001 0.0
    vertex 0.0 44.00000000000001 8.249999999999998
    vertex 44.00000000000001 44.00000000000001 8.249999999999998
  endloop
endfacet
facet normal 0.0 1.0 0.0
  outer loop
    vertex 2.5 2.5 3.5
    vertex 41.5 2.5 1.5
    vertex 2.5 2.5 1.5
  endloop
endfacet
facet normal 0.0 1.0 0.0
  outer loop
    vertex 41.5 2.5 1.5
    vertex 2.5 2.5 3.5
    vertex 41.5 2.5 3.5
  endloop
endfacet
facet normal 0.0 0.0 1.0
  outer loop
    vertex 1.25 1.25 3.5
    vertex 2.5 2.5 3.5
    vertex 1.25 42.75000000000001 3.5
  endloop
endfacet
facet normal 0.0 0.0 1.0
  outer loop
    vertex 2.5 2.5 3.5
    vertex 1.25 1.25 3.5
    vertex 42.75000000000001 1.25 3.5
  endloop
endfacet
facet normal 0.0 0.0 1.0
  outer loop
    vertex 2.5 2.5 3.5
    vertex 42.75000000000001 1.25 3.5
    vertex 41.5 2.5 3.5
  endloop
endfacet
facet normal 0.0 0.0 1.0
  outer loop
    vertex 41.5 2.5 3.5
    vertex 42.75000000000001 1.25 3.5
    vertex 41.5 41.5 3.5
  endloop
endfacet
facet normal 0.0 0.0 1.0
  outer loop
    vertex 1.25 42.75000000000001 3.5
    vertex 2.5 41.5 3.5
    vertex 42.75000000000001 42.75000000000001 3.5
  endloop
endfacet
facet normal 0.0 0.0 1.0
  outer loop
    vertex 2.5 41.5 3.5
    vertex 1.25 42.75000000000001 3.5
    vertex 2.5 2.5 3.5
  endloop
endfacet
facet normal 0.0 0.0 1.0
  outer loop
    vertex 42.75000000000001 42.75000000000001 3.5
    vertex 2.5 41.5 3.5
    vertex 41.5 41.5 3.5
  endloop
endfacet
facet normal 0.0 0.0 1.0
  outer loop
    vertex 42.75000000000001 42.75000000000001 3.5
    vertex 41.5 41.5 3.5
    vertex 42.75000000000001 1.25 3.5
  endloop
endfacet
facet normal 1.0 0.0 0.0
  outer loop
    vertex 2.5 41.5 1.5
    vertex 2.5 2.5 3.5
    vertex 2.5 2.5 1.5
  endloop
endfacet
facet normal 1.0 0.0 0.0
  outer loop
    vertex 2.5 2.5 3.5
    vertex 2.5 41.5 1.5
    vertex 2.5 41.5 3.5
  endloop
endfacet
facet normal -1.0 0.0 0.0
  outer loop
    vertex 41.5 41.5 3.5
    vertex 41.5 2.5 1.5
    vertex 41.5 2.5 3.5
  endloop
endfacet
facet normal -1.0 0.0 0.0
  outer loop
    vertex 41.5 2.5 1.5
    vertex 41.5 41.5 3.5
    vertex 41.5 41.5 1.5
  endloop
endfacet
facet normal 0.0 -1.0 0.0
  outer loop
    vertex 41.5 41.5 3.5
    vertex 2.5 41.5 1.5
    vertex 41.5 41.5 1.5
  endloop
endfacet
facet normal 0.0 -1.0 0.0
  outer loop
    vertex 2.5 41.5 1.5
    vertex 41.5 41.5 3.5
    vertex 2.5 41.5 3.5
  endloop
endfacet
facet normal 1.0 0.0 0.0
  outer loop
    vertex 1.25 42.75000000000001 3.5
    vertex 1.25 1.25 8.249999999999998
    vertex 1.25 1.25 3.5
  endloop
endfacet
facet normal 1.0 0.0 0.0
  outer loop
    vertex 1.25 1.25 8.249999999999998
    vertex 1.25 42.75000000000001 3.5
    vertex 1.25 42.75000000000001 8.249999999999998
  endloop
endfacet
facet normal 0.0 0.0 1.0
  outer loop
    vertex 0.0 0.0 8.249999999999998
    vertex 1.25 1.25 8.249999999999998
    vertex 0.0 44.00000000000001 8.249999999999998
  endloop
endfacet
facet normal 0.0 0.0 1.0
  outer loop
    vertex 1.25 1.25 8.249999999999998
    vertex 0.0 0.0 8.249999999999998
    vertex 44.00000000000001 0.0 8.249999999999998
  endloop
endfacet
facet normal 0.0 0.0 1.0
  outer loop
    vertex 1.25 1.25 8.249999999999998
    vertex 44.00000000000001 0.0 8.249999999999998
    vertex 42.75000000000001 1.25 8.249999999999998
  endloop
endfacet
facet normal 0.0 0.0 1.0
  outer loop
    vertex 42.75000000000001 1.25 8.249999999999998
    vertex 44.00000000000001 0.0 8.249999999999998
    vertex 42.75000000000001 42.75000000000001 8.249999999999998
  endloop
endfacet
facet normal 0.0 0.0 1.0
  outer loop
    vertex 0.0 44.00000000000001 8.249999999999998
    vertex 1.25 42.75000000000001 8.249999999999998
    vertex 44.00000000000001 44.00000000000001 8.249999999999998
  endloop
endfacet
facet normal 0.0 0.0 1.0
  outer loop
    vertex 1.25 42.75000000000001 8.249999999999998
    vertex 0.0 44.00000000000001 8.249999999999998
    vertex 1.25 1.25 8.249999999999998
  endloop
endfacet
facet normal 0.0 0.0 1.0
  outer loop
    vertex 44.00000000000001 44.00000000000001 8.249999999999998
    vertex 1.25 42.75000000000001 8.249999999999998
    vertex 42.75000000000001 42.75000000000001 8.249999999999998
  endloop
endfacet
facet normal 0.0 0.0 1.0
  outer loop
    vertex 44.00000000000001 44.00000000000001 8.249999999999998
    vertex 42.75000000000001 42.75000000000001 8.249999999999998
    vertex 44.00000000000001 0.0 8.249999999999998
  endloop
endfacet
facet normal 0.0 -1.0 0.0
  outer loop
    vertex 42.75000000000001 42.75000000000001 8.249999999999998
    vertex 1.25 42.75000000000001 3.5
    vertex 42.75000000000001 42.75000000000001 3.5
  endloop
endfacet
facet normal 0.0 -1.0 0.0
  outer loop
    vertex 1.25 42.75000000000001 3.5
    vertex 42.75000000000001 42.75000000000001 8.249999999999998
    vertex 1.25 42.75000000000001 8.249999999999998
  endloop
endfacet
facet normal -1.0 0.0 0.0
  outer loop
    vertex 42.75000000000001 42.75000000000001 8.249999999999998
    vertex 42.75000000000001 1.25 3.5
    vertex 42.75000000000001 1.25 8.249999999999998
  endloop
endfacet
facet normal -1.0 0.0 0.0
  outer loop
    vertex 42.75000000000001 1.25 3.5
    vertex 42.75000000000001 42.75000000000001 8.249999999999998
    vertex 42.75000000000001 42.75000000000001 3.5
  endloop
endfacet
facet normal 0.0 1.0 0.0
  outer loop
    vertex 1.25 1.25 8.249999999999998
    vertex 42.75000000000001 1.25 3.5
    vertex 1.25 1.25 3.5
  endloop
endfacet
facet normal 0.0 1.0 0.0
  outer loop
    vertex 42.75000000000001 1.25 3.5
    vertex 1.25 1.25 8.249999999999998
    vertex 42.75000000000001 1.25 8.249999999999998
  endloop
endfacet
facet normal -1.3846032529615184e-08 -0.36935453736491886 0.9292885589137244
  outer loop
    vertex 49.49999935465471 32.05510196443875 43.31291462971939
    vertex 47.99999936636817 30.077141068989924 42.52675531975496
    vertex 49.49999936636817 30.077141068989924 42.526755342104366
  endloop
endfacet
facet normal -1.3846032529615184e-08 -0.36935453736491886 0.9292885589137244
  outer loop
    vertex 47.99999936636817 30.077141068989924 42.52675531975496
    vertex 49.49999935465471 32.05510196443875 43.31291462971939
    vertex 47.999999354654705 32.05510196443875 43.31291460736998
  endloop
endfacet
facet normal -1.3171540617923288e-08 -0.46745012561748406 0.8840194455215327
  outer loop
    vertex 49.49999933983031 33.93670900380861 44.30786723101345
    vertex 47.999999354654705 32.05510196443875 43.31291460736998
    vertex 49.49999935465471 32.05510196443875 43.31291462971939
  endloop
endfacet
facet normal -1.3171540617923288e-08 -0.46745012561748406 0.8840194455215327
  outer loop
    vertex 47.999999354654705 32.05510196443875 43.31291460736998
    vertex 49.49999933983031 33.93670900380861 44.30786723101345
    vertex 47.9999993398303 33.93670900380861 44.30786720866404
  endloop
endfacet
facet normal -1.435891303646069e-08 -0.2669478292632389 0.9637109818050454
  outer loop
    vertex 49.49999936636817 30.077141068989924 42.526755342104366
    vertex 47.999999374833976 28.02591315034088 41.95856542616061
    vertex 49.499999374833976 28.02591315034088 41.95856544851002
  endloop
endfacet
facet normal -1.435891303646069e-08 -0.2669478292632389 0.9637109818050454
  outer loop
    vertex 47.999999374833976 28.02591315034088 41.95856542616061
    vertex 49.49999936636817 30.077141068989924 42.526755342104366
    vertex 47.99999936636817 30.077141068989924 42.52675531975496
  endloop
endfacet
facet normal -1.4704195778175584e-08 -0.16142529620479212 0.9868849343997481
  outer loop
    vertex 49.499999374833976 28.02591315034088 41.95856544851002
    vertex 47.99999937995331 25.925360216780547 41.61497686008319
    vertex 49.49999937995331 25.925360216780547 41.61497688243259
  endloop
endfacet
facet normal -1.4704195778175584e-08 -0.16142529620479212 0.9868849343997481
  outer loop
    vertex 47.99999937995331 25.925360216780547 41.61497686008319
    vertex 49.499999374833976 28.02591315034088 41.95856544851002
    vertex 47.999999374833976 28.02591315034088 41.95856542616061
  endloop
endfacet
facet normal 1.4899605076167364e-08 0.0 -0.9999999999999999
  outer loop
    vertex 48.00000000000003 47.6 6.333623980701143e-16
    vertex 59.85000000000002 -1.0574874309554614e-15 1.7656032078594563e-07
    vertex 48.00000000000003 -1.0574874309554614e-15 6.333623980701143e-16
  endloop
endfacet
facet normal 1.4899605076167364e-08 0.0 -0.9999999999999999
  outer loop
    vertex 59.85000000000002 -1.0574874309554614e-15 1.7656032078594563e-07
    vertex 48.00000000000003 47.6 6.333623980701143e-16
    vertex 59.85000000000002 47.6 1.7656032078594563e-07
  endloop
endfacet
facet normal -0.0 -1.0 0.0
  outer loop
    vertex 47.99999932206799 -1.0574874309554614e-15 45.49999999999999
    vertex 59.85000000000002 -1.0574874309554614e-15 1.7656032078594563e-07
    vertex 59.849999322067994 -1.0574874309554614e-15 45.500000176560306
  endloop
endfacet
facet normal -0.0 -1.0 0.0
  outer loop
    vertex 59.85000000000002 -1.0574874309554614e-15 1.7656032078594563e-07
    vertex 47.99999932206799 -1.0574874309554614e-15 45.49999999999999
    vertex 48.00000000000003 -1.0574874309554614e-15 6.333623980701143e-16
  endloop
endfacet
facet normal 0.0 1.0 0.0
  outer loop
    vertex 48.00000000000003 47.6 6.333623980701143e-16
    vertex 59.849999322067994 47.6 45.500000176560306
    vertex 59.85000000000002 47.6 1.7656032078594563e-07
  endloop
endfacet
facet normal 0.0 1.0 0.0
  outer loop
    vertex 59.849999322067994 47.6 45.500000176560306
    vertex 48.00000000000003 47.6 6.333623980701143e-16
    vertex 47.99999932206799 47.6 45.49999999999999
  endloop
endfacet
facet normal -0.9999999999999999 0.0 -1.4899605076167364e-08
  outer loop
    vertex 47.99999932206799 -1.0574874309554614e-15 45.49999999999999
    vertex 48.00000000000003 47.6 6.333623980701143e-16
    vertex 48.00000000000003 -1.0574874309554614e-15 6.333623980701143e-16
  endloop
endfacet
facet normal -0.9999999999999999 0.0 -1.4899605076167364e-08
  outer loop
    vertex 48.00000000000003 47.6 6.333623980701143e-16
    vertex 47.99999932206799 -1.0574874309554614e-15 45.49999999999999
    vertex 47.999999374833976 19.57408684965912 41.95856542616061
  endloop
endfacet
facet normal -0.9999999999999999 0.0 -1.4899605076167364e-08
  outer loop
    vertex 48.00000000000003 47.6 6.333623980701143e-16
    vertex 47.999999374833976 19.57408684965912 41.95856542616061
    vertex 47.99999937995331 21.67463978321945 41.61497686008319
  endloop
endfacet
facet normal -0.9999999999999999 0.0 -1.4899605076167364e-08
  outer loop
    vertex 48.00000000000003 47.6 6.333623980701143e-16
    vertex 47.99999937995331 21.67463978321945 41.61497686008319
    vertex 47.99999938166642 23.8 41.49999999999999
  endloop
endfacet
facet normal -0.9999999999999999 0.0 -1.4899605076167364e-08
  outer loop
    vertex 47.999999374833976 19.57408684965912 41.95856542616061
    vertex 47.99999932206799 -1.0574874309554614e-15 45.49999999999999
    vertex 47.99999936636817 17.52285893101007 42.52675531975496
  endloop
endfacet
facet normal -0.9999999999999999 0.0 -1.4899605076167364e-08
  outer loop
    vertex 47.99999936636817 17.52285893101007 42.52675531975496
    vertex 47.99999932206799 -1.0574874309554614e-15 45.49999999999999
    vertex 47.999999354654705 15.544898035561253 43.31291460736998
  endloop
endfacet
facet normal -0.9999999999999999 0.0 -1.4899605076167364e-08
  outer loop
    vertex 47.999999354654705 15.544898035561253 43.31291460736998
    vertex 47.99999932206799 -1.0574874309554614e-15 45.49999999999999
    vertex 47.9999993398303 13.663290996191385 44.30786720866404
  endloop
endfacet
facet normal -0.9999999999999999 0.0 -1.4899605076167364e-08
  outer loop
    vertex 47.9999993398303 13.663290996191385 44.30786720866404
    vertex 47.99999932206799 -1.0574874309554614e-15 45.49999999999999
    vertex 47.99999932206799 11.899999999999999 45.49999999999999
  endloop
endfacet
facet normal -0.9999999999999999 0.0 -1.4899605076167364e-08
  outer loop
    vertex 48.00000000000003 47.6 6.333623980701143e-16
    vertex 47.999999374833976 28.02591315034088 41.95856542616061
    vertex 47.99999932206799 47.6 45.49999999999999
  endloop
endfacet
facet normal -0.9999999999999999 0.0 -1.4899605076167364e-08
  outer loop
    vertex 47.999999374833976 28.02591315034088 41.95856542616061
    vertex 48.00000000000003 47.6 6.333623980701143e-16
    vertex 47.99999937995331 25.925360216780547 41.61497686008319
  endloop
endfacet
facet normal -0.9999999999999999 0.0 -1.4899605076167364e-08
  outer loop
    vertex 47.99999937995331 25.925360216780547 41.61497686008319
    vertex 48.00000000000003 47.6 6.333623980701143e-16
    vertex 47.99999938166642 23.8 41.49999999999999
  endloop
endfacet
facet normal -0.9999999999999999 0.0 -1.4899605076167364e-08
  outer loop
    vertex 47.99999932206799 47.6 45.49999999999999
    vertex 47.999999374833976 28.02591315034088 41.95856542616061
    vertex 47.99999936636817 30.077141068989924 42.52675531975496
  endloop
endfacet
facet normal -0.9999999999999999 0.0 -1.4899605076167364e-08
  outer loop
    vertex 47.99999932206799 47.6 45.49999999999999
    vertex 47.99999936636817 30.077141068989924 42.52675531975496
    vertex 47.999999354654705 32.05510196443875 43.31291460736998
  endloop
endfacet
facet normal -0.9999999999999999 0.0 -1.4899605076167364e-08
  outer loop
    vertex 47.99999932206799 47.6 45.49999999999999
    vertex 47.999999354654705 32.05510196443875 43.31291460736998
    vertex 47.9999993398303 33.93670900380861 44.30786720866404
  endloop
endfacet
facet normal -0.9999999999999999 0.0 -1.4899605076167364e-08
  outer loop
    vertex 47.99999932206799 47.6 45.49999999999999
    vertex 47.9999993398303 33.93670900380861 44.30786720866404
    vertex 47.99999932206799 35.7 45.49999999999999
  endloop
endfacet
facet normal -1.4899605076167364e-08 0.0 0.9999999999999999
  outer loop
    vertex 58.34999997765062 46.1 1.500000154210913
    vertex 49.49999997765062 1.4999999999999962 1.500000022349408
    vertex 58.34999997765062 1.4999999999999962 1.500000154210913
  endloop
endfacet
facet normal -1.4899605076167364e-08 0.0 0.9999999999999999
  outer loop
    vertex 49.49999997765062 1.4999999999999962 1.500000022349408
    vertex 58.34999997765062 46.1 1.500000154210913
    vertex 49.49999997765062 46.1 1.500000022349408
  endloop
endfacet
facet normal 0.9999999999999999 -0.0 1.4899605076167364e-08
  outer loop
    vertex 59.849999322067994 47.6 45.500000176560306
    vertex 59.85000000000002 -1.0574874309554614e-15 1.7656032078594563e-07
    vertex 59.85000000000002 47.6 1.7656032078594563e-07
  endloop
endfacet
facet normal 0.9999999999999999 -0.0 1.4899605076167364e-08
  outer loop
    vertex 59.85000000000002 -1.0574874309554614e-15 1.7656032078594563e-07
    vertex 59.849999322067994 47.6 45.500000176560306
    vertex 59.849999322067994 -1.0574874309554614e-15 45.500000176560306
  endloop
endfacet
facet normal -0.9999999999999999 0.0 -1.4899605076167364e-08
  outer loop
    vertex 58.349999322067994 1.4999999999999962 45.5000001542109
    vertex 58.34999997765062 46.1 1.500000154210913
    vertex 58.34999997765062 1.4999999999999962 1.500000154210913
  endloop
endfacet
facet normal -0.9999999999999999 0.0 -1.4899605076167364e-08
  outer loop
    vertex 58.34999997765062 46.1 1.500000154210913
    vertex 58.349999322067994 1.4999999999999962 45.5000001542109
    vertex 58.349999322067994 46.1 45.5000001542109
  endloop
endfacet
facet normal 0.9999999999999999 0.0 1.4899605076167364e-08
  outer loop
    vertex 49.499999322068 46.1 45.500000022349404
    vertex 49.49999997765062 1.4999999999999962 1.500000022349408
    vertex 49.49999997765062 46.1 1.500000022349408
  endloop
endfacet
facet normal 0.9999999999999999 0.0 1.4899605076167364e-08
  outer loop
    vertex 49.49999997765062 1.4999999999999962 1.500000022349408
    vertex 49.499999322068 46.1 45.500000022349404
    vertex 49.499999374833976 28.02591315034088 41.95856544851002
  endloop
endfacet
facet normal 0.9999999999999999 0.0 1.4899605076167364e-08
  outer loop
    vertex 49.49999997765062 1.4999999999999962 1.500000022349408
    vertex 49.499999374833976 28.02591315034088 41.95856544851002
    vertex 49.49999937995331 25.925360216780547 41.61497688243259
  endloop
endfacet
facet normal 0.9999999999999999 0.0 1.4899605076167364e-08
  outer loop
    vertex 49.49999997765062 1.4999999999999962 1.500000022349408
    vertex 49.49999937995331 25.925360216780547 41.61497688243259
    vertex 49.49999938166642 23.8 41.5000000223494
  endloop
endfacet
facet normal 0.9999999999999999 0.0 1.4899605076167364e-08
  outer loop
    vertex 49.499999374833976 28.02591315034088 41.95856544851002
    vertex 49.499999322068 46.1 45.500000022349404
    vertex 49.49999936636817 30.077141068989924 42.526755342104366
  endloop
endfacet
facet normal 0.9999999999999999 0.0 1.4899605076167364e-08
  outer loop
    vertex 49.49999936636817 30.077141068989924 42.526755342104366
    vertex 49.499999322068 46.1 45.500000022349404
    vertex 49.49999935465471 32.05510196443875 43.31291462971939
  endloop
endfacet
facet normal 0.9999999999999999 0.0 1.4899605076167364e-08
  outer loop
    vertex 49.49999935465471 32.05510196443875 43.31291462971939
    vertex 49.499999322068 46.1 45.500000022349404
    vertex 49.49999933983031 33.93670900380861 44.30786723101345
  endloop
endfacet
facet normal 0.9999999999999999 0.0 1.4899605076167364e-08
  outer loop
    vertex 49.49999933983031 33.93670900380861 44.30786723101345
    vertex 49.499999322068 46.1 45.500000022349404
    vertex 49.499999322068 35.7 45.500000022349404
  endloop
endfacet
facet normal 0.9999999999999999 0.0 1.4899605076167364e-08
  outer loop
    vertex 49.49999997765062 1.4999999999999962 1.500000022349408
    vertex 49.499999374833976 19.57408684965912 41.95856544851002
    vertex 49.499999322068 1.4999999999999962 45.500000022349404
  endloop
endfacet
facet normal 0.9999999999999999 0.0 1.4899605076167364e-08
  outer loop
    vertex 49.499999374833976 19.57408684965912 41.95856544851002
    vertex 49.49999997765062 1.4999999999999962 1.500000022349408
    vertex 49.49999937995331 21.67463978321945 41.61497688243259
  endloop
endfacet
facet normal 0.9999999999999999 0.0 1.4899605076167364e-08
  outer loop
    vertex 49.49999937995331 21.67463978321945 41.61497688243259
    vertex 49.49999997765062 1.4999999999999962 1.500000022349408
    vertex 49.49999938166642 23.8 41.5000000223494
  endloop
endfacet
facet normal 0.9999999999999999 0.0 1.4899605076167364e-08
  outer loop
    vertex 49.499999322068 1.4999999999999962 45.500000022349404
    vertex 49.499999374833976 19.57408684965912 41.95856544851002
    vertex 49.49999936636817 17.52285893101007 42.526755342104366
  endloop
endfacet
facet normal 0.9999999999999999 0.0 1.4899605076167364e-08
  outer loop
    vertex 49.499999322068 1.4999999999999962 45.500000022349404
    vertex 49.49999936636817 17.52285893101007 42.526755342104366
    vertex 49.49999935465471 15.544898035561253 43.31291462971939
  endloop
endfacet
facet normal 0.9999999999999999 0.0 1.4899605076167364e-08
  outer loop
    vertex 49.499999322068 1.4999999999999962 45.500000022349404
    vertex 49.49999935465471 15.544898035561253 43.31291462971939
    vertex 49.49999933983031 13.663290996191385 44.30786723101345
  endloop
endfacet
facet normal 0.9999999999999999 0.0 1.4899605076167364e-08
  outer loop
    vertex 49.499999322068 1.4999999999999962 45.500000022349404
    vertex 49.49999933983031 13.663290996191385 44.30786723101345
    vertex 49.499999322068 11.899999999999999 45.500000022349404
  endloop
endfacet
facet normal -1.4899605076167364e-08 0.0 0.9999999999999999
  outer loop
    vertex 59.849999322067994 -1.0574874309554614e-15 45.500000176560306
    vertex 58.349999322067994 1.4999999999999962 45.5000001542109
    vertex 47.99999932206799 -1.0574874309554614e-15 45.49999999999999
  endloop
endfacet
facet normal -1.4899605076167364e-08 0.0 0.9999999999999999
  outer loop
    vertex 58.349999322067994 1.4999999999999962 45.5000001542109
    vertex 59.849999322067994 -1.0574874309554614e-15 45.500000176560306
    vertex 59.849999322067994 47.6 45.500000176560306
  endloop
endfacet
facet normal -1.4899605076167364e-08 0.0 0.9999999999999999
  outer loop
    vertex 58.349999322067994 1.4999999999999962 45.5000001542109
    vertex 59.849999322067994 47.6 45.500000176560306
    vertex 58.349999322067994 46.1 45.5000001542109
  endloop
endfacet
facet normal -1.4899605076167364e-08 0.0 0.9999999999999999
  outer loop
    vertex 58.349999322067994 46.1 45.5000001542109
    vertex 59.849999322067994 47.6 45.500000176560306
    vertex 49.499999322068 46.1 45.500000022349404
  endloop
endfacet
facet normal -1.4899605076167364e-08 0.0 0.9999999999999999
  outer loop
    vertex 49.499999322068 46.1 45.500000022349404
    vertex 47.99999932206799 35.7 45.49999999999999
    vertex 49.499999322068 35.7 45.500000022349404
  endloop
endfacet
facet normal -1.4899605076167364e-08 0.0 0.9999999999999999
  outer loop
    vertex 47.99999932206799 35.7 45.49999999999999
    vertex 49.499999322068 46.1 45.500000022349404
    vertex 47.99999932206799 47.6 45.49999999999999
  endloop
endfacet
facet normal -1.4899605076167364e-08 0.0 0.9999999999999999
  outer loop
    vertex 47.99999932206799 47.6 45.49999999999999
    vertex 49.499999322068 46.1 45.500000022349404
    vertex 59.849999322067994 47.6 45.500000176560306
  endloop
endfacet
facet normal -1.4899605076167364e-08 0.0 0.9999999999999999
  outer loop
    vertex 47.99999932206799 -1.0574874309554614e-15 45.49999999999999
    vertex 49.499999322068 1.4999999999999962 45.500000022349404
    vertex 47.99999932206799 11.899999999999999 45.49999999999999
  endloop
endfacet
facet normal -1.4899605076167364e-08 0.0 0.9999999999999999
  outer loop
    vertex 49.499999322068 1.4999999999999962 45.500000022349404
    vertex 47.99999932206799 -1.0574874309554614e-15 45.49999999999999
    vertex 58.349999322067994 1.4999999999999962 45.5000001542109
  endloop
endfacet
facet normal -1.4899605076167364e-08 0.0 0.9999999999999999
  outer loop
    vertex 47.99999932206799 11.899999999999999 45.49999999999999
    vertex 49.499999322068 1.4999999999999962 45.500000022349404
    vertex 49.499999322068 11.899999999999999 45.500000022349404
  endloop
endfacet
facet normal 0.0 1.0 0.0
  outer loop
    vertex 49.49999997765062 1.4999999999999962 1.500000022349408
    vertex 58.349999322067994 1.4999999999999962 45.5000001542109
    vertex 58.34999997765062 1.4999999999999962 1.500000154210913
  endloop
endfacet
facet normal 0.0 1.0 0.0
  outer loop
    vertex 58.349999322067994 1.4999999999999962 45.5000001542109
    vertex 49.49999997765062 1.4999999999999962 1.500000022349408
    vertex 49.499999322068 1.4999999999999962 45.500000022349404
  endloop
endfacet
facet normal 0.0 -1.0 0.0
  outer loop
    vertex 49.499999322068 46.1 45.500000022349404
    vertex 58.34999997765062 46.1 1.500000154210913
    vertex 58.349999322067994 46.1 45.5000001542109
  endloop
endfacet
facet normal 0.0 -1.0 0.0
  outer loop
    vertex 58.34999997765062 46.1 1.500000154210913
    vertex 49.499999322068 46.1 45.500000022349404
    vertex 49.49999997765062 46.1 1.500000022349408
  endloop
endfacet
facet normal -1.4358913036460692e-08 0.2669478292632382 0.9637109818050456
  outer loop
    vertex 49.499999374833976 19.57408684965912 41.95856544851002
    vertex 47.99999936636817 17.52285893101007 42.52675531975496
    vertex 49.49999936636817 17.52285893101007 42.526755342104366
  endloop
endfacet
facet normal -1.4358913036460692e-08 0.2669478292632382 0.9637109818050456
  outer loop
    vertex 47.99999936636817 17.52285893101007 42.52675531975496
    vertex 49.499999374833976 19.57408684965912 41.95856544851002
    vertex 47.999999374833976 19.57408684965912 41.95856542616061
  endloop
endfacet
facet normal -1.3171540617923285e-08 0.4674501256174845 0.8840194455215324
  outer loop
    vertex 49.49999935465471 15.544898035561253 43.31291462971939
    vertex 47.9999993398303 13.663290996191385 44.30786720866404
    vertex 49.49999933983031 13.663290996191385 44.30786723101345
  endloop
endfacet
facet normal -1.3171540617923285e-08 0.4674501256174845 0.8840194455215324
  outer loop
    vertex 47.9999993398303 13.663290996191385 44.30786720866404
    vertex 49.49999935465471 15.544898035561253 43.31291462971939
    vertex 47.999999354654705 15.544898035561253 43.31291460736998
  endloop
endfacet
facet normal -1.2343309995976218e-08 0.5600896186792409 0.8284320243977429
  outer loop
    vertex 49.49999933983031 13.663290996191385 44.30786723101345
    vertex 47.99999932206799 11.899999999999999 45.49999999999999
    vertex 49.499999322068 11.899999999999999 45.500000022349404
  endloop
endfacet
facet normal -1.2343309995976218e-08 0.5600896186792409 0.8284320243977429
  outer loop
    vertex 47.99999932206799 11.899999999999999 45.49999999999999
    vertex 49.49999933983031 13.663290996191385 44.30786723101345
    vertex 47.9999993398303 13.663290996191385 44.30786720866404
  endloop
endfacet
facet normal -1.4877850601801698e-08 -0.05401860110631233 0.9985399294642738
  outer loop
    vertex 49.49999937995331 25.925360216780547 41.61497688243259
    vertex 47.99999938166642 23.8 41.49999999999999
    vertex 49.49999938166642 23.8 41.5000000223494
  endloop
endfacet
facet normal -1.4877850601801698e-08 -0.05401860110631233 0.9985399294642738
  outer loop
    vertex 47.99999938166642 23.8 41.49999999999999
    vertex 49.49999937995331 25.925360216780547 41.61497688243259
    vertex 47.99999937995331 25.925360216780547 41.61497686008319
  endloop
endfacet
facet normal -1.2343309995976218e-08 -0.5600896186792409 0.8284320243977429
  outer loop
    vertex 49.499999322068 35.7 45.500000022349404
    vertex 47.9999993398303 33.93670900380861 44.30786720866404
    vertex 49.49999933983031 33.93670900380861 44.30786723101345
  endloop
endfacet
facet normal -1.2343309995976218e-08 -0.5600896186792409 0.8284320243977429
  outer loop
    vertex 47.9999993398303 33.93670900380861 44.30786720866404
    vertex 49.499999322068 35.7 45.500000022349404
    vertex 47.99999932206799 35.7 45.49999999999999
  endloop
endfacet
facet normal -1.3846032529615181e-08 0.3693545373649198 0.9292885589137242
  outer loop
    vertex 49.49999936636817 17.52285893101007 42.526755342104366
    vertex 47.999999354654705 15.544898035561253 43.31291460736998
    vertex 49.49999935465471 15.544898035561253 43.31291462971939
  endloop
endfacet
facet normal -1.3846032529615181e-08 0.3693545373649198 0.9292885589137242
  outer loop
    vertex 47.999999354654705 15.544898035561253 43.31291460736998
    vertex 49.49999936636817 17.52285893101007 42.526755342104366
    vertex 47.99999936636817 17.52285893101007 42.52675531975496
  endloop
endfacet
facet normal -1.4877850601801698e-08 0.05401860110631086 0.9985399294642738
  outer loop
    vertex 49.49999938166642 23.8 41.5000000223494
    vertex 47.99999937995331 21.67463978321945 41.61497686008319
    vertex 49.49999937995331 21.67463978321945 41.61497688243259
  endloop
endfacet
facet normal -1.4877850601801698e-08 0.05401860110631086 0.9985399294642738
  outer loop
    vertex 47.99999937995331 21.67463978321945 41.61497686008319
    vertex 49.49999938166642 23.8 41.5000000223494
    vertex 47.99999938166642 23.8 41.49999999999999
  endloop
endfacet
facet normal -1.4704195778175577e-08 0.16142529620479382 0.9868849343997477
  outer loop
    vertex 49.49999937995331 21.67463978321945 41.61497688243259
    vertex 47.999999374833976 19.57408684965912 41.95856542616061
    vertex 49.499999374833976 19.57408684965912 41.95856544851002
  endloop
endfacet
facet normal -1.4704195778175577e-08 0.16142529620479382 0.9868849343997477
  outer loop
    vertex 47.999999374833976 19.57408684965912 41.95856542616061
    vertex 49.49999937995331 21.67463978321945 41.61497688243259
    vertex 47.99999937995331 21.67463978321945 41.61497686008319
  endloop
endfacet
endsolid am4 cpu box
